Muli-Heavy.ufo
<glyph name="ampersand" format="2">
  <advance width="720"/>
  <unicode hex="0026"/>
  <outline>
    <contour>
      <point x="670" y="-12" type="curve"/>
      <point x="731" y="135" type="line"/>
      <point x="681" y="142"/>
      <point x="641" y="157"/>
      <point x="601" y="193" type="curve"/>
      <point x="601" y="151" type="line"/>
      <point x="663" y="230"/>
      <point x="700" y="334"/>
      <point x="705" y="442" type="curve"/>
      <point x="537" y="442" type="line"/>
      <point x="531" y="376"/>
      <point x="514" y="315"/>
      <point x="481" y="261" type="curve"/>
      <point x="522" y="261" type="line"/>
      <point x="381" y="388" type="line"/>
      <point x="377" y="351" type="line"/>
      <point x="470" y="390"/>
      <point x="521" y="458"/>
      <point x="521" y="541" type="curve" smooth="yes"/>
      <point x="521" y="648"/>
      <point x="440" y="717"/>
      <point x="313" y="717" type="curve" smooth="yes"/>
      <point x="169" y="717"/>
      <point x="74" y="639"/>
      <point x="74" y="526" type="curve" smooth="yes"/>
      <point x="74" y="467"/>
      <point x="101" y="409"/>
      <point x="151" y="370" type="curve"/>
      <point x="184" y="409" type="line"/>
      <point x="148" y="392" type="line" smooth="yes"/>
      <point x="64" y="352"/>
      <point x="5" y="290"/>
      <point x="5" y="199" type="curve" smooth="yes"/>
      <point x="5" y="73"/>
      <point x="117" y="-12"/>
      <point x="289" y="-12" type="curve" smooth="yes"/>
      <point x="375" y="-12"/>
      <point x="458" y="20"/>
      <point x="526" y="71" type="curve"/>
      <point x="485" y="73" type="line"/>
      <point x="545" y="27"/>
      <point x="608" y="-5"/>
    </contour>
    <contour>
      <point x="304" y="143" type="curve" smooth="yes"/>
      <point x="246" y="143"/>
      <point x="211" y="170"/>
      <point x="211" y="214" type="curve" smooth="yes"/>
      <point x="211" y="256"/>
      <point x="236" y="289"/>
      <point x="273" y="305" type="curve" smooth="yes"/>
      <point x="297" y="315" type="line"/>
      <point x="210" y="316" type="line"/>
      <point x="406" y="140" type="line"/>
      <point x="411" y="182" type="line"/>
      <point x="377" y="156"/>
      <point x="345" y="143"/>
    </contour>
    <contour>
      <point x="313" y="585" type="curve" smooth="yes"/>
      <point x="344" y="585"/>
      <point x="364" y="569"/>
      <point x="364" y="535" type="curve" smooth="yes"/>
      <point x="364" y="494"/>
      <point x="335" y="469"/>
      <point x="271" y="446" type="curve"/>
      <point x="315" y="446" type="line"/>
      <point x="278" y="479"/>
      <point x="260" y="502"/>
      <point x="260" y="531" type="curve" smooth="yes"/>
      <point x="260" y="564"/>
      <point x="279" y="585"/>
    </contour>
  </outline>
</glyph>
<glyph name="parenleft" format="2">
  <advance width="427"/>
  <unicode hex="0028"/>
  <outline>
    <contour>
      <point x="251" y="-179" type="curve"/>
      <point x="413" y="-179" type="line"/>
      <point x="342" y="-17"/>
      <point x="311" y="120"/>
      <point x="311" y="263" type="curve" smooth="yes"/>
      <point x="311" y="406"/>
      <point x="342" y="543"/>
      <point x="413" y="705" type="curve"/>
      <point x="251" y="705" type="line"/>
      <point x="135" y="562"/>
      <point x="97" y="428"/>
      <point x="97" y="263" type="curve" smooth="yes"/>
      <point x="97" y="98"/>
      <point x="135" y="-36"/>
    </contour>
  </outline>
</glyph>
<glyph name="parenright" format="2">
  <advance width="427"/>
  <unicode hex="0029"/>
  <outline>
    <contour>
      <point x="176" y="-180" type="line"/>
      <point x="292" y="-37"/>
      <point x="330" y="98"/>
      <point x="330" y="263" type="curve" smooth="yes"/>
      <point x="330" y="428"/>
      <point x="292" y="562"/>
      <point x="176" y="705" type="curve"/>
      <point x="14" y="705" type="line"/>
      <point x="85" y="543"/>
      <point x="116" y="406"/>
      <point x="116" y="263" type="curve" smooth="yes"/>
      <point x="116" y="120"/>
      <point x="85" y="-18"/>
      <point x="14" y="-180" type="curve"/>
    </contour>
  </outline>
</glyph>
<glyph name="asterisk" format="2">
  <advance width="462"/>
  <unicode hex="002A"/>
  <outline>
    <contour>
      <point x="165" y="321" type="line"/>
      <point x="231" y="429" type="line"/>
      <point x="297" y="321" type="line"/>
      <point x="408" y="402" type="line"/>
      <point x="325" y="500" type="line"/>
      <point x="449" y="527" type="line"/>
      <point x="406" y="658" type="line"/>
      <point x="290" y="610" type="line"/>
      <point x="301" y="736" type="line"/>
      <point x="163" y="736" type="line"/>
      <point x="173" y="608" type="line"/>
      <point x="56" y="658" type="line"/>
      <point x="13" y="527" type="line"/>
      <point x="138" y="498" type="line"/>
      <point x="55" y="402" type="line"/>
    </contour>
  </outline>
</glyph>
<glyph name="one" format="2">
  <advance width="600"/>
  <unicode hex="0031"/>
  <outline>
    <contour>
      <point x="80" y="0" type="line"/>
      <point x="595" y="0" type="line"/>
      <point x="595" y="174" type="line"/>
      <point x="450" y="174" type="line"/>
      <point x="450" y="705" type="line"/>
      <point x="298" y="705" type="line"/>
      <point x="97" y="594" type="line"/>
      <point x="97" y="396" type="line"/>
      <point x="332" y="526" type="line"/>
      <point x="235" y="526" type="line"/>
      <point x="235" y="174" type="line"/>
      <point x="80" y="174" type="line"/>
    </contour>
  </outline>
</glyph>
<glyph name="two" format="2">
  <advance width="600"/>
  <unicode hex="0032"/>
  <outline>
    <contour>
      <point x="62" y="0" type="line"/>
      <point x="565" y="0" type="line"/>
      <point x="565" y="174" type="line"/>
      <point x="267" y="174" type="line"/>
      <point x="267" y="120" type="line"/>
      <point x="414" y="260" type="line" smooth="yes"/>
      <point x="507" y="348"/>
      <point x="540" y="420"/>
      <point x="540" y="506" type="curve" smooth="yes"/>
      <point x="540" y="642"/>
      <point x="449" y="717"/>
      <point x="279" y="717" type="curve" smooth="yes"/>
      <point x="185" y="717"/>
      <point x="90" y="689"/>
      <point x="26" y="642" type="curve"/>
      <point x="91" y="486" type="line"/>
      <point x="145" y="524"/>
      <point x="199" y="542"/>
      <point x="247" y="542" type="curve" smooth="yes"/>
      <point x="300" y="542"/>
      <point x="330" y="521"/>
      <point x="330" y="480" type="curve" smooth="yes"/>
      <point x="330" y="447"/>
      <point x="313" y="418"/>
      <point x="265" y="368" type="curve" smooth="yes"/>
      <point x="62" y="158" type="line"/>
    </contour>
  </outline>
</glyph>
<glyph name="four" format="2">
  <advance width="600"/>
  <unicode hex="0034"/>
  <outline>
    <contour>
      <point x="299" y="0" type="line"/>
      <point x="504" y="0" type="line"/>
      <point x="504" y="109" type="line"/>
      <point x="591" y="109" type="line"/>
      <point x="591" y="267" type="line"/>
      <point x="504" y="267" type="line"/>
      <point x="504" y="705" type="line"/>
      <point x="332" y="705" type="line"/>
      <point x="24" y="257" type="line"/>
      <point x="24" y="109" type="line"/>
      <point x="299" y="109" type="line"/>
    </contour>
    <contour>
      <point x="299" y="267" type="line"/>
      <point x="171" y="267" type="line"/>
      <point x="171" y="218" type="line"/>
      <point x="326" y="450" type="line"/>
      <point x="299" y="450" type="line"/>
    </contour>
  </outline>
</glyph>
<glyph name="question" format="2">
  <advance width="494"/>
  <unicode hex="003F"/>
  <outline>
    <contour>
      <point x="169" y="255" type="line"/>
      <point x="291" y="255" type="line"/>
      <point x="297" y="289" type="line" smooth="yes"/>
      <point x="301" y="313"/>
      <point x="318" y="340"/>
      <point x="383" y="381" type="curve" smooth="yes"/>
      <point x="434" y="413"/>
      <point x="480" y="475"/>
      <point x="480" y="545" type="curve" smooth="yes"/>
      <point x="480" y="673"/>
      <point x="379" y="717"/>
      <point x="251" y="717" type="curve" smooth="yes"/>
      <point x="185" y="717"/>
      <point x="106" y="697"/>
      <point x="56" y="664" type="curve"/>
      <point x="56" y="495" type="line"/>
      <point x="104" y="525"/>
      <point x="162" y="548"/>
      <point x="214" y="548" type="curve" smooth="yes"/>
      <point x="251" y="548"/>
      <point x="270" y="535"/>
      <point x="270" y="513" type="curve" smooth="yes"/>
      <point x="270" y="495"/>
      <point x="260" y="475"/>
      <point x="232" y="449" type="curve" smooth="yes"/>
      <point x="187" y="408"/>
      <point x="169" y="368"/>
      <point x="169" y="316" type="curve" smooth="yes"/>
    </contour>
    <contour>
      <point x="124" y="0" type="line"/>
      <point x="336" y="0" type="line"/>
      <point x="336" y="207" type="line"/>
      <point x="124" y="207" type="line"/>
    </contour>
  </outline>
</glyph>
<glyph name="D" format="2">
  <advance width="791"/>
  <unicode hex="0044"/>
  <anchor x="404" y="0" name="bottom"/>
  <anchor x="217" y="358" name="center"/>
  <anchor x="404" y="705" name="top"/>
  <outline>
    <contour>
      <point x="58" y="0" type="line"/>
      <point x="357" y="0" type="line" smooth="yes"/>
      <point x="613" y="0"/>
      <point x="750" y="137"/>
      <point x="750" y="353" type="curve" smooth="yes"/>
      <point x="750" y="570"/>
      <point x="613" y="705"/>
      <point x="357" y="705" type="curve" smooth="yes"/>
      <point x="58" y="705" type="line"/>
    </contour>
    <contour>
      <point x="274" y="174" type="line"/>
      <point x="274" y="531" type="line"/>
      <point x="344" y="531" type="line" smooth="yes"/>
      <point x="474" y="531"/>
      <point x="536" y="475"/>
      <point x="536" y="353" type="curve" smooth="yes"/>
      <point x="536" y="231"/>
      <point x="475" y="174"/>
      <point x="344" y="174" type="curve" smooth="yes"/>
    </contour>
  </outline>
</glyph>
<glyph name="F" format="2">
  <advance width="590"/>
  <unicode hex="0046"/>
  <anchor x="313" y="0" name="bottom"/>
  <anchor x="319" y="705" name="top"/>
  <outline>
    <contour>
      <point x="58" y="0" type="line"/>
      <point x="274" y="0" type="line"/>
      <point x="274" y="267" type="line"/>
      <point x="546" y="267" type="line"/>
      <point x="546" y="431" type="line"/>
      <point x="274" y="431" type="line"/>
      <point x="274" y="541" type="line"/>
      <point x="570" y="541" type="line"/>
      <point x="570" y="705" type="line"/>
      <point x="58" y="705" type="line"/>
    </contour>
  </outline>
</glyph>
<glyph name="H" format="2">
  <advance width="789"/>
  <unicode hex="0048"/>
  <anchor x="395" y="0" name="bottom"/>
  <anchor x="395" y="575" name="center"/>
  <anchor x="395" y="705" name="top"/>
  <anchor x="17" y="705" name="topleft"/>
  <outline>
    <contour>
      <point x="58" y="0" type="line"/>
      <point x="274" y="0" type="line"/>
      <point x="274" y="269" type="line"/>
      <point x="515" y="269" type="line"/>
      <point x="515" y="0" type="line"/>
      <point x="731" y="0" type="line"/>
      <point x="731" y="705" type="line"/>
      <point x="515" y="705" type="line"/>
      <point x="515" y="445" type="line"/>
      <point x="274" y="445" type="line"/>
      <point x="274" y="705" type="line"/>
      <point x="58" y="705" type="line"/>
    </contour>
  </outline>
</glyph>
<glyph name="I" format="2">
  <advance width="332"/>
  <unicode hex="0049"/>
  <anchor x="166" y="0" name="bottom"/>
  <anchor x="219" y="0" name="ogonek"/>
  <anchor x="166" y="705" name="top"/>
  <anchor x="17" y="705" name="topleft"/>
  <outline>
    <contour>
      <point x="58" y="0" type="line"/>
      <point x="274" y="0" type="line"/>
      <point x="274" y="705" type="line"/>
      <point x="58" y="705" type="line"/>
    </contour>
  </outline>
</glyph>
<glyph name="J" format="2">
  <advance width="423"/>
  <unicode hex="004A"/>
  <anchor x="260" y="0" name="bottom"/>
  <anchor x="260" y="705" name="top"/>
  <outline>
    <contour>
      <point x="109" y="-187" type="curve" smooth="yes"/>
      <point x="297" y="-187"/>
      <point x="365" y="-102"/>
      <point x="365" y="83" type="curve" smooth="yes"/>
      <point x="365" y="705" type="line"/>
      <point x="149" y="705" type="line"/>
      <point x="149" y="82" type="line" smooth="yes"/>
      <point x="149" y="10"/>
      <point x="132" y="-20"/>
      <point x="72" y="-20" type="curve" smooth="yes"/>
      <point x="58" y="-20"/>
      <point x="29" y="-18"/>
      <point x="3" y="-13" type="curve"/>
      <point x="3" y="-177" type="line"/>
      <point x="42" y="-185"/>
      <point x="84" y="-187"/>
    </contour>
  </outline>
</glyph>
<glyph name="L" format="2">
  <advance width="588"/>
  <unicode hex="004C"/>
  <anchor x="322" y="0" name="bottom"/>
  <anchor x="214" y="387" name="center"/>
  <anchor x="474" y="402" name="dot"/>
  <anchor x="166" y="705" name="top"/>
  <anchor x="367" y="705" name="topright"/>
  <outline>
    <contour>
      <point x="58" y="0" type="line"/>
      <point x="560" y="0" type="line"/>
      <point x="560" y="178" type="line"/>
      <point x="274" y="178" type="line"/>
      <point x="274" y="705" type="line"/>
      <point x="58" y="705" type="line"/>
    </contour>
  </outline>
</glyph>
<glyph name="N" format="2">
  <advance width="771"/>
  <unicode hex="004E"/>
  <anchor x="391" y="0" name="bottom"/>
  <anchor x="390" y="705" name="top"/>
  <outline>
    <contour>
      <point x="58" y="0" type="line"/>
      <point x="260" y="0" type="line"/>
      <point x="260" y="395" type="line"/>
      <point x="229" y="395" type="line"/>
      <point x="555" y="0" type="line"/>
      <point x="713" y="0" type="line"/>
      <point x="713" y="705" type="line"/>
      <point x="512" y="705" type="line"/>
      <point x="512" y="310" type="line"/>
      <point x="543" y="310" type="line"/>
      <point x="216" y="705" type="line"/>
      <point x="58" y="705" type="line"/>
    </contour>
  </outline>
</glyph>
<glyph name="O" format="2">
  <advance width="814"/>
  <unicode hex="004F"/>
  <anchor x="407" y="-12" name="Qtail"/>
  <anchor x="407" y="0" name="bottom"/>
  <anchor x="418" y="353" name="center"/>
  <anchor x="483" y="0" name="ogonek"/>
  <anchor x="407" y="705" name="top"/>
  <anchor x="25" y="705" name="topleft"/>
  <anchor x="485" y="705" name="topright"/>
  <outline>
    <contour>
      <point x="406" y="-12" type="curve" smooth="yes"/>
      <point x="631" y="-12"/>
      <point x="773" y="135"/>
      <point x="773" y="353" type="curve" smooth="yes"/>
      <point x="773" y="571"/>
      <point x="631" y="717"/>
      <point x="406" y="717" type="curve" smooth="yes"/>
      <point x="182" y="717"/>
      <point x="41" y="571"/>
      <point x="41" y="353" type="curve" smooth="yes"/>
      <point x="41" y="136"/>
      <point x="182" y="-12"/>
    </contour>
    <contour>
      <point x="406" y="167" type="curve" smooth="yes"/>
      <point x="310" y="167"/>
      <point x="267" y="236"/>
      <point x="267" y="353" type="curve" smooth="yes"/>
      <point x="267" y="470"/>
      <point x="310" y="538"/>
      <point x="406" y="538" type="curve" smooth="yes"/>
      <point x="502" y="538"/>
      <point x="547" y="469"/>
      <point x="547" y="353" type="curve" smooth="yes"/>
      <point x="547" y="237"/>
      <point x="502" y="167"/>
    </contour>
  </outline>
</glyph>
<glyph name="R" format="2">
  <advance width="720"/>
  <unicode hex="0052"/>
  <anchor x="371" y="0" name="bottom"/>
  <anchor x="370" y="705" name="top"/>
  <outline>
    <contour>
      <point x="58" y="0" type="line"/>
      <point x="274" y="0" type="line"/>
      <point x="274" y="250" type="line"/>
      <point x="294" y="250" type="line" smooth="yes"/>
      <point x="319" y="250"/>
      <point x="346" y="242"/>
      <point x="357" y="222" type="curve" smooth="yes"/>
      <point x="478" y="0" type="line"/>
      <point x="715" y="0" type="line"/>
      <point x="606" y="190" type="line" smooth="yes"/>
      <point x="575" y="245"/>
      <point x="528" y="282"/>
      <point x="469" y="282" type="curve" smooth="yes"/>
      <point x="410" y="282" type="line"/>
      <point x="403" y="253" type="line"/>
      <point x="571" y="253"/>
      <point x="666" y="339"/>
      <point x="666" y="479" type="curve" smooth="yes"/>
      <point x="666" y="620"/>
      <point x="571" y="705"/>
      <point x="405" y="705" type="curve" smooth="yes"/>
      <point x="58" y="705" type="line"/>
    </contour>
    <contour>
      <point x="274" y="401" type="line"/>
      <point x="274" y="541" type="line"/>
      <point x="366" y="541" type="line" smooth="yes"/>
      <point x="427" y="541"/>
      <point x="460" y="519"/>
      <point x="460" y="472" type="curve" smooth="yes"/>
      <point x="460" y="424"/>
      <point x="427" y="401"/>
      <point x="366" y="401" type="curve" smooth="yes"/>
    </contour>
  </outline>
</glyph>
<glyph name="S" format="2">
  <advance width="685"/>
  <unicode hex="0053"/>
  <anchor x="340" y="0" name="bottom"/>
  <anchor x="349" y="705" name="top"/>
  <outline>
    <contour>
      <point x="334" y="-12" type="curve" smooth="yes"/>
      <point x="522" y="-12"/>
      <point x="646" y="80"/>
      <point x="646" y="223" type="curve" smooth="yes"/>
      <point x="646" y="329"/>
      <point x="581" y="399"/>
      <point x="454" y="424" type="curve" smooth="yes"/>
      <point x="329" y="449" type="line" smooth="yes"/>
      <point x="276" y="460"/>
      <point x="261" y="476"/>
      <point x="261" y="495" type="curve" smooth="yes"/>
      <point x="261" y="525"/>
      <point x="293" y="542"/>
      <point x="360" y="542" type="curve" smooth="yes"/>
      <point x="440" y="542"/>
      <point x="506" y="521"/>
      <point x="557" y="487" type="curve"/>
      <point x="616" y="643" type="line"/>
      <point x="560" y="688"/>
      <point x="465" y="717"/>
      <point x="365" y="717" type="curve" smooth="yes"/>
      <point x="175" y="717"/>
      <point x="50" y="623"/>
      <point x="50" y="480" type="curve" smooth="yes"/>
      <point x="50" y="372"/>
      <point x="114" y="304"/>
      <point x="244" y="277" type="curve" smooth="yes"/>
      <point x="371" y="251" type="line" smooth="yes"/>
      <point x="423" y="240"/>
      <point x="435" y="228"/>
      <point x="435" y="206" type="curve" smooth="yes"/>
      <point x="435" y="182"/>
      <point x="415" y="163"/>
      <point x="336" y="163" type="curve" smooth="yes"/>
      <point x="252" y="163"/>
      <point x="160" y="190"/>
      <point x="96" y="228" type="curve"/>
      <point x="37" y="62" type="line"/>
      <point x="106" y="17"/>
      <point x="219" y="-12"/>
    </contour>
  </outline>
</glyph>
<glyph name="V" format="2">
  <advance width="765"/>
  <unicode hex="0056"/>
  <anchor x="389" y="0" name="bottom"/>
  <anchor x="389" y="705" name="top"/>
  <outline>
    <contour>
      <point x="297" y="0" type="line"/>
      <point x="469" y="0" type="line"/>
      <point x="792" y="705" type="line"/>
      <point x="569" y="705" type="line"/>
      <point x="356" y="201" type="line"/>
      <point x="419" y="201" type="line"/>
      <point x="205" y="705" type="line"/>
      <point x="-27" y="705" type="line"/>
    </contour>
  </outline>
</glyph>
<glyph name="bracketleft" format="2">
  <advance width="424"/>
  <unicode hex="005B"/>
  <outline>
    <contour>
      <point x="94" y="-180" type="line"/>
      <point x="401" y="-180" type="line"/>
      <point x="401" y="-28" type="line"/>
      <point x="298" y="-28" type="line"/>
      <point x="298" y="553" type="line"/>
      <point x="401" y="553" type="line"/>
      <point x="401" y="705" type="line"/>
      <point x="94" y="705" type="line"/>
    </contour>
  </outline>
</glyph>
<glyph name="a" format="2">
  <advance width="657"/>
  <unicode hex="0061"/>
  <anchor x="319" y="0" name="bottom"/>
  <anchor x="316" y="255" name="center"/>
  <anchor x="567" y="0" name="ogonek"/>
  <anchor x="324" y="484" name="top"/>
  <outline>
    <contour>
      <point x="250" y="-12" type="curve" smooth="yes"/>
      <point x="323" y="-12"/>
      <point x="393" y="24"/>
      <point x="413" y="76" type="curve"/>
      <point x="401" y="76" type="line"/>
      <point x="403" y="0" type="line"/>
      <point x="609" y="0" type="line"/>
      <point x="609" y="365" type="line" smooth="yes"/>
      <point x="609" y="413"/>
      <point x="612" y="462"/>
      <point x="617" y="510" type="curve"/>
      <point x="417" y="510" type="line"/>
      <point x="405" y="428" type="line"/>
      <point x="415" y="428" type="line"/>
      <point x="396" y="484"/>
      <point x="325" y="522"/>
      <point x="250" y="522" type="curve" smooth="yes"/>
      <point x="119" y="522"/>
      <point x="27" y="421"/>
      <point x="27" y="255" type="curve" smooth="yes"/>
      <point x="27" y="89"/>
      <point x="119" y="-12"/>
    </contour>
    <contour>
      <point x="320" y="141" type="curve" smooth="yes"/>
      <point x="269" y="141"/>
      <point x="236" y="172"/>
      <point x="236" y="255" type="curve" smooth="yes"/>
      <point x="236" y="338"/>
      <point x="270" y="369"/>
      <point x="320" y="369" type="curve" smooth="yes"/>
      <point x="369" y="369"/>
      <point x="404" y="338"/>
      <point x="404" y="255" type="curve" smooth="yes"/>
      <point x="404" y="172"/>
      <point x="369" y="141"/>
    </contour>
  </outline>
</glyph>
<glyph name="c" format="2">
  <advance width="520"/>
  <unicode hex="0063"/>
  <anchor x="304" y="0" name="bottom"/>
  <anchor x="304" y="484" name="top"/>
  <outline>
    <contour>
      <point x="319" y="-12" type="curve" smooth="yes"/>
      <point x="389" y="-12"/>
      <point x="463" y="7"/>
      <point x="506" y="39" type="curve"/>
      <point x="450" y="180" type="line"/>
      <point x="420" y="158"/>
      <point x="377" y="144"/>
      <point x="342" y="144" type="curve" smooth="yes"/>
      <point x="278" y="144"/>
      <point x="241" y="182"/>
      <point x="241" y="255" type="curve" smooth="yes"/>
      <point x="241" y="328"/>
      <point x="278" y="366"/>
      <point x="342" y="366" type="curve" smooth="yes"/>
      <point x="378" y="366"/>
      <point x="421" y="352"/>
      <point x="450" y="330" type="curve"/>
      <point x="506" y="471" type="line"/>
      <point x="464" y="503"/>
      <point x="389" y="522"/>
      <point x="319" y="522" type="curve" smooth="yes"/>
      <point x="144" y="522"/>
      <point x="27" y="422"/>
      <point x="27" y="255" type="curve" smooth="yes"/>
      <point x="27" y="88"/>
      <point x="144" y="-12"/>
    </contour>
  </outline>
</glyph>
<glyph name="e" format="2">
  <advance width="555"/>
  <unicode hex="0065"/>
  <anchor x="302" y="0" name="bottom"/>
  <anchor x="417" y="0" name="ogonek"/>
  <anchor x="291" y="484" name="top"/>
  <outline>
    <contour>
      <point x="329" y="-12" type="curve" smooth="yes"/>
      <point x="405" y="-12"/>
      <point x="472" y="6"/>
      <point x="525" y="38" type="curve"/>
      <point x="473" y="173" type="line"/>
      <point x="431" y="150"/>
      <point x="387" y="141"/>
      <point x="336" y="141" type="curve" smooth="yes"/>
      <point x="261" y="141"/>
      <point x="223" y="172"/>
      <point x="223" y="250" type="curve" smooth="yes"/>
      <point x="223" y="271" type="line" smooth="yes"/>
      <point x="223" y="352"/>
      <point x="246" y="387"/>
      <point x="293" y="387" type="curve" smooth="yes"/>
      <point x="333" y="387"/>
      <point x="357" y="358"/>
      <point x="357" y="293" type="curve"/>
      <point x="374" y="307" type="line"/>
      <point x="203" y="307" type="line"/>
      <point x="203" y="213" type="line"/>
      <point x="529" y="213" type="line"/>
      <point x="529" y="253" type="line" smooth="yes"/>
      <point x="529" y="408"/>
      <point x="451" y="522"/>
      <point x="291" y="522" type="curve" smooth="yes"/>
      <point x="131" y="522"/>
      <point x="27" y="410"/>
      <point x="27" y="256" type="curve" smooth="yes"/>
      <point x="27" y="91"/>
      <point x="137" y="-12"/>
    </contour>
  </outline>
</glyph>
<glyph name="f" format="2">
  <advance width="424"/>
  <unicode hex="0066"/>
  <anchor x="200" y="0" name="bottom"/>
  <anchor x="200" y="669" name="top"/>
  <outline>
    <contour>
      <point x="96" y="0" type="line"/>
      <point x="304" y="0" type="line"/>
      <point x="304" y="358" type="line"/>
      <point x="420" y="358" type="line"/>
      <point x="420" y="510" type="line"/>
      <point x="274" y="510" type="line"/>
      <point x="302" y="480" type="line"/>
      <point x="302" y="516" type="line" smooth="yes"/>
      <point x="302" y="566"/>
      <point x="344" y="576"/>
      <point x="377" y="576" type="curve" smooth="yes"/>
      <point x="399" y="576"/>
      <point x="425" y="573"/>
      <point x="445" y="567" type="curve"/>
      <point x="445" y="724" type="line"/>
      <point x="413" y="737"/>
      <point x="369" y="740"/>
      <point x="333" y="740" type="curve" smooth="yes"/>
      <point x="173" y="740"/>
      <point x="96" y="668"/>
      <point x="96" y="521" type="curve" smooth="yes"/>
      <point x="96" y="456" type="line"/>
      <point x="155" y="510" type="line"/>
      <point x="2" y="510" type="line"/>
      <point x="2" y="358" type="line"/>
      <point x="96" y="358" type="line"/>
    </contour>
  </outline>
</glyph>
<glyph name="h" format="2">
  <advance width="635"/>
  <unicode hex="0068"/>
  <anchor x="320" y="0" name="bottom"/>
  <anchor x="320" y="258" name="center"/>
  <anchor x="408" y="362" name="dot"/>
  <anchor x="203" y="605" name="stroke"/>
  <anchor x="320" y="736" name="top"/>
  <anchor x="275" y="736" name="topright"/>
  <outline>
    <contour>
      <point x="48" y="0" type="line"/>
      <point x="256" y="0" type="line"/>
      <point x="256" y="284" type="line" smooth="yes"/>
      <point x="256" y="332"/>
      <point x="286" y="364"/>
      <point x="331" y="364" type="curve" smooth="yes"/>
      <point x="364" y="364"/>
      <point x="382" y="344"/>
      <point x="382" y="293" type="curve" smooth="yes"/>
      <point x="382" y="0" type="line"/>
      <point x="590" y="0" type="line"/>
      <point x="590" y="301" type="line" smooth="yes"/>
      <point x="590" y="450"/>
      <point x="532" y="522"/>
      <point x="413" y="522" type="curve" smooth="yes"/>
      <point x="337" y="522"/>
      <point x="274" y="488"/>
      <point x="240" y="428" type="curve"/>
      <point x="256" y="428" type="line"/>
      <point x="256" y="736" type="line"/>
      <point x="48" y="736" type="line"/>
    </contour>
  </outline>
</glyph>
<glyph name="i" format="2">
  <advance width="304"/>
  <unicode hex="0069"/>
  <anchor x="152" y="0" name="bottom"/>
  <anchor x="204" y="0" name="ogonek"/>
  <anchor x="152" y="484" name="top"/>
  <outline>
    <contour>
      <point x="48" y="0" type="line"/>
      <point x="256" y="0" type="line"/>
      <point x="256" y="510" type="line"/>
      <point x="48" y="510" type="line"/>
    </contour>
    <contour>
      <point x="45" y="568" type="line"/>
      <point x="259" y="568" type="line"/>
      <point x="259" y="750" type="line"/>
      <point x="45" y="750" type="line"/>
    </contour>
  </outline>
</glyph>
<glyph name="j" format="2">
  <advance width="303"/>
  <unicode hex="006A"/>
  <anchor x="148" y="0" name="bottom"/>
  <anchor x="148" y="484" name="top"/>
  <outline>
    <contour>
      <point x="26" y="-226" type="curve" smooth="yes"/>
      <point x="186" y="-226"/>
      <point x="253" y="-149"/>
      <point x="253" y="-2" type="curve" smooth="yes"/>
      <point x="253" y="510" type="line"/>
      <point x="45" y="510" type="line"/>
      <point x="45" y="4" type="line" smooth="yes"/>
      <point x="45" y="-47"/>
      <point x="14" y="-61"/>
      <point x="-18" y="-61" type="curve" smooth="yes"/>
      <point x="-40" y="-61"/>
      <point x="-55" y="-59"/>
      <point x="-75" y="-52" type="curve"/>
      <point x="-75" y="-210" type="line"/>
      <point x="-43" y="-223"/>
      <point x="-10" y="-226"/>
    </contour>
    <contour>
      <point x="41" y="568" type="line"/>
      <point x="255" y="568" type="line"/>
      <point x="255" y="750" type="line"/>
      <point x="41" y="750" type="line"/>
    </contour>
  </outline>
</glyph>
<glyph name="k" format="2">
  <advance width="621"/>
  <unicode hex="006B"/>
  <anchor x="309" y="0" name="bottom"/>
  <anchor x="312" y="736" name="top"/>
  <outline>
    <contour>
      <point x="48" y="0" type="line"/>
      <point x="256" y="0" type="line"/>
      <point x="256" y="206" type="line"/>
      <point x="258" y="206" type="line"/>
      <point x="406" y="0" type="line"/>
      <point x="655" y="0" type="line"/>
      <point x="435" y="302" type="line"/>
      <point x="435" y="235" type="line"/>
      <point x="652" y="510" type="line"/>
      <point x="408" y="510" type="line"/>
      <point x="258" y="310" type="line"/>
      <point x="256" y="310" type="line"/>
      <point x="256" y="736" type="line"/>
      <point x="48" y="736" type="line"/>
    </contour>
  </outline>
</glyph>
<glyph name="m" format="2">
  <advance width="938"/>
  <unicode hex="006D"/>
  <anchor x="470" y="0" name="bottom"/>
  <anchor x="470" y="484" name="top"/>
  <outline>
    <contour>
      <point x="48" y="0" type="line"/>
      <point x="256" y="0" type="line"/>
      <point x="256" y="276" type="line" smooth="yes"/>
      <point x="256" y="332"/>
      <point x="279" y="364"/>
      <point x="321" y="364" type="curve" smooth="yes"/>
      <point x="352" y="364"/>
      <point x="366" y="345"/>
      <point x="366" y="293" type="curve" smooth="yes"/>
      <point x="366" y="0" type="line"/>
      <point x="574" y="0" type="line"/>
      <point x="574" y="276" type="line" smooth="yes"/>
      <point x="574" y="332"/>
      <point x="598" y="364"/>
      <point x="639" y="364" type="curve" smooth="yes"/>
      <point x="670" y="364"/>
      <point x="684" y="345"/>
      <point x="684" y="293" type="curve" smooth="yes"/>
      <point x="684" y="0" type="line"/>
      <point x="893" y="0" type="line"/>
      <point x="893" y="299" type="line" smooth="yes"/>
      <point x="893" y="452"/>
      <point x="837" y="522"/>
      <point x="718" y="522" type="curve" smooth="yes"/>
      <point x="642" y="522"/>
      <point x="574" y="483"/>
      <point x="540" y="416" type="curve"/>
      <point x="557" y="416" type="line"/>
      <point x="532" y="489"/>
      <point x="477" y="522"/>
      <point x="405" y="522" type="curve" smooth="yes"/>
      <point x="329" y="522"/>
      <point x="271" y="485"/>
      <point x="240" y="429" type="curve"/>
      <point x="251" y="429" type="line"/>
      <point x="240" y="510" type="line"/>
      <point x="40" y="510" type="line"/>
      <point x="45" y="462"/>
      <point x="48" y="413"/>
      <point x="48" y="365" type="curve" smooth="yes"/>
    </contour>
  </outline>
</glyph>
<glyph name="s" format="2">
  <advance width="509"/>
  <unicode hex="0073"/>
  <anchor x="252" y="0" name="bottom"/>
  <anchor x="260" y="484" name="top"/>
  <outline>
    <contour>
      <point x="251" y="-12" type="curve" smooth="yes"/>
      <point x="395" y="-12"/>
      <point x="493" y="54"/>
      <point x="493" y="169" type="curve" smooth="yes"/>
      <point x="493" y="250"/>
      <point x="443" y="297"/>
      <point x="355" y="311" type="curve" smooth="yes"/>
      <point x="243" y="329" type="line" smooth="yes"/>
      <point x="221" y="333"/>
      <point x="212" y="342"/>
      <point x="212" y="354" type="curve" smooth="yes"/>
      <point x="212" y="371"/>
      <point x="228" y="384"/>
      <point x="278" y="384" type="curve" smooth="yes"/>
      <point x="324" y="384"/>
      <point x="387" y="365"/>
      <point x="429" y="340" type="curve"/>
      <point x="480" y="470" type="line"/>
      <point x="425" y="506"/>
      <point x="349" y="522"/>
      <point x="271" y="522" type="curve" smooth="yes"/>
      <point x="123" y="522"/>
      <point x="29" y="450"/>
      <point x="29" y="343" type="curve" smooth="yes"/>
      <point x="29" y="264"/>
      <point x="79" y="215"/>
      <point x="166" y="200" type="curve" smooth="yes"/>
      <point x="278" y="181" type="line" smooth="yes"/>
      <point x="298" y="178"/>
      <point x="310" y="171"/>
      <point x="310" y="156" type="curve" smooth="yes"/>
      <point x="310" y="138"/>
      <point x="294" y="126"/>
      <point x="252" y="126" type="curve" smooth="yes"/>
      <point x="188" y="126"/>
      <point x="116" y="147"/>
      <point x="64" y="174" type="curve"/>
      <point x="16" y="40" type="line"/>
      <point x="72" y="8"/>
      <point x="152" y="-12"/>
    </contour>
  </outline>
</glyph>
<glyph name="u" format="2">
  <advance width="630"/>
  <unicode hex="0075"/>
  <anchor x="314" y="0" name="bottom"/>
  <anchor x="523" y="0" name="ogonek"/>
  <anchor x="314" y="484" name="top"/>
  <anchor x="436" y="500" name="topright"/>
  <outline>
    <contour>
      <point x="237" y="-12" type="curve" smooth="yes"/>
      <point x="309" y="-12"/>
      <point x="362" y="22"/>
      <point x="395" y="84" type="curve"/>
      <point x="379" y="84" type="line"/>
      <point x="379" y="0" type="line"/>
      <point x="582" y="0" type="line"/>
      <point x="582" y="510" type="line"/>
      <point x="374" y="510" type="line"/>
      <point x="374" y="228" type="line" smooth="yes"/>
      <point x="374" y="178"/>
      <point x="344" y="146"/>
      <point x="304" y="146" type="curve" smooth="yes"/>
      <point x="270" y="146"/>
      <point x="253" y="166"/>
      <point x="253" y="208" type="curve" smooth="yes"/>
      <point x="253" y="510" type="line"/>
      <point x="45" y="510" type="line"/>
      <point x="45" y="210" type="line" smooth="yes"/>
      <point x="45" y="60"/>
      <point x="105" y="-12"/>
    </contour>
  </outline>
</glyph>
<glyph name="y" format="2">
  <advance width="566"/>
  <unicode hex="0079"/>
  <anchor x="459" y="0" name="bottom"/>
  <anchor x="282" y="484" name="top"/>
  <outline>
    <contour>
      <point x="56" y="-227" type="line"/>
      <point x="196" y="-207"/>
      <point x="290" y="-176"/>
      <point x="367" y="-2" type="curve" smooth="yes"/>
      <point x="594" y="510" type="line"/>
      <point x="390" y="510" type="line"/>
      <point x="269" y="205" type="line"/>
      <point x="305" y="205" type="line"/>
      <point x="190" y="510" type="line"/>
      <point x="-28" y="510" type="line"/>
      <point x="194" y="0" type="line"/>
      <point x="199" y="76" type="line"/>
      <point x="174" y="19" type="line" smooth="yes"/>
      <point x="151" y="-36"/>
      <point x="103" y="-52"/>
      <point x="7" y="-67" type="curve"/>
    </contour>
  </outline>
</glyph>
<glyph name="asciitilde" format="2">
  <advance width="600"/>
  <unicode hex="007E"/>
  <outline>
    <contour>
      <point x="399" y="193" type="curve" smooth="yes"/>
      <point x="464" y="193"/>
      <point x="526" y="243"/>
      <point x="544" y="309" type="curve"/>
      <point x="445" y="377" type="line"/>
      <point x="433" y="339"/>
      <point x="414" y="322"/>
      <point x="386" y="322" type="curve" smooth="yes"/>
      <point x="372" y="322"/>
      <point x="347" y="330"/>
      <point x="307" y="350" type="curve" smooth="yes"/>
      <point x="263" y="372"/>
      <point x="229" y="381"/>
      <point x="200" y="381" type="curve" smooth="yes"/>
      <point x="135" y="381"/>
      <point x="75" y="332"/>
      <point x="56" y="264" type="curve"/>
      <point x="154" y="197" type="line"/>
      <point x="166" y="235"/>
      <point x="186" y="253"/>
      <point x="213" y="253" type="curve" smooth="yes"/>
      <point x="230" y="253"/>
      <point x="256" y="243"/>
      <point x="296" y="223" type="curve" smooth="yes"/>
      <point x="344" y="199"/>
      <point x="372" y="193"/>
    </contour>
  </outline>
</glyph>
<glyph name="yen" format="2">
  <advance width="600"/>
  <unicode hex="00A5"/>
  <outline>
    <contour>
      <point x="192" y="0" type="line"/>
      <point x="407" y="0" type="line"/>
      <point x="407" y="143" type="line"/>
      <point x="540" y="143" type="line"/>
      <point x="540" y="255" type="line"/>
      <point x="407" y="255" type="line"/>
      <point x="407" y="305" type="line"/>
      <point x="540" y="305" type="line"/>
      <point x="540" y="417" type="line"/>
      <point x="436" y="417" type="line"/>
      <point x="436" y="393" type="line"/>
      <point x="637" y="705" type="line"/>
      <point x="408" y="705" type="line"/>
      <point x="278" y="479" type="line"/>
      <point x="320" y="479" type="line"/>
      <point x="192" y="705" type="line"/>
      <point x="-37" y="705" type="line"/>
      <point x="162" y="393" type="line"/>
      <point x="162" y="417" type="line"/>
      <point x="60" y="417" type="line"/>
      <point x="60" y="305" type="line"/>
      <point x="192" y="305" type="line"/>
      <point x="192" y="255" type="line"/>
      <point x="60" y="255" type="line"/>
      <point x="60" y="143" type="line"/>
      <point x="192" y="143" type="line"/>
    </contour>
  </outline>
</glyph>
<glyph name="section" format="2">
  <advance width="621"/>
  <unicode hex="00A7"/>
  <outline>
    <contour>
      <point x="296" y="-192" type="curve" smooth="yes"/>
      <point x="463" y="-192"/>
      <point x="564" y="-118"/>
      <point x="564" y="3" type="curve" smooth="yes"/>
      <point x="564" y="50"/>
      <point x="543" y="94"/>
      <point x="502" y="128" type="curve"/>
      <point x="487" y="74" type="line"/>
      <point x="569" y="119"/>
      <point x="606" y="175"/>
      <point x="606" y="252" type="curve" smooth="yes"/>
      <point x="606" y="327"/>
      <point x="561" y="386"/>
      <point x="471" y="424" type="curve" smooth="yes"/>
      <point x="310" y="493" type="line" smooth="yes"/>
      <point x="275" y="508"/>
      <point x="261" y="521"/>
      <point x="261" y="538" type="curve" smooth="yes"/>
      <point x="261" y="565"/>
      <point x="286" y="579"/>
      <point x="333" y="579" type="curve" smooth="yes"/>
      <point x="387" y="579"/>
      <point x="458" y="561"/>
      <point x="511" y="536" type="curve"/>
      <point x="560" y="666" type="line"/>
      <point x="510" y="699"/>
      <point x="430" y="717"/>
      <point x="333" y="717" type="curve" smooth="yes"/>
      <point x="166" y="717"/>
      <point x="65" y="643"/>
      <point x="65" y="522" type="curve" smooth="yes"/>
      <point x="65" y="473"/>
      <point x="86" y="431"/>
      <point x="127" y="397" type="curve"/>
      <point x="142" y="451" type="line"/>
      <point x="60" y="406"/>
      <point x="23" y="350"/>
      <point x="23" y="273" type="curve" smooth="yes"/>
      <point x="23" y="198"/>
      <point x="68" y="139"/>
      <point x="158" y="101" type="curve" smooth="yes"/>
      <point x="319" y="32" type="line" smooth="yes"/>
      <point x="353" y="17"/>
      <point x="368" y="4"/>
      <point x="368" y="-13" type="curve" smooth="yes"/>
      <point x="368" y="-40"/>
      <point x="343" y="-54"/>
      <point x="296" y="-54" type="curve" smooth="yes"/>
      <point x="231" y="-54"/>
      <point x="146" y="-28"/>
      <point x="99" y="1" type="curve"/>
      <point x="47" y="-133" type="line"/>
      <point x="105" y="-169"/>
      <point x="195" y="-192"/>
    </contour>
    <contour>
      <point x="204" y="315" type="curve" smooth="yes"/>
      <point x="204" y="331"/>
      <point x="210" y="349"/>
      <point x="225" y="370" type="curve"/>
      <point x="183" y="362" type="line"/>
      <point x="196" y="356"/>
      <point x="214" y="348"/>
      <point x="223" y="344" type="curve" smooth="yes"/>
      <point x="363" y="283" type="line" smooth="yes"/>
      <point x="403" y="266"/>
      <point x="425" y="240"/>
      <point x="425" y="210" type="curve" smooth="yes"/>
      <point x="425" y="194"/>
      <point x="418" y="176"/>
      <point x="404" y="155" type="curve"/>
      <point x="446" y="163" type="line"/>
      <point x="433" y="169"/>
      <point x="416" y="176"/>
      <point x="406" y="181" type="curve" smooth="yes"/>
      <point x="266" y="242" type="line" smooth="yes"/>
      <point x="226" y="260"/>
      <point x="204" y="285"/>
    </contour>
  </outline>
</glyph>
<glyph name="ordfeminine" format="2">
  <advance width="368"/>
  <unicode hex="00AA"/>
  <outline>
    <contour>
      <point x="135" y="402" type="curve" smooth="yes"/>
      <point x="178" y="402"/>
      <point x="204" y="426"/>
      <point x="222" y="466" type="curve"/>
      <point x="225" y="466" type="line"/>
      <point x="225" y="410" type="line"/>
      <point x="344" y="410" type="line"/>
      <point x="344" y="587" type="line" smooth="yes"/>
      <point x="344" y="673"/>
      <point x="290" y="717"/>
      <point x="178" y="717" type="curve" smooth="yes"/>
      <point x="129" y="717"/>
      <point x="65" y="704"/>
      <point x="31" y="687" type="curve"/>
      <point x="59" y="602" type="line"/>
      <point x="93" y="618"/>
      <point x="137" y="626"/>
      <point x="165" y="626" type="curve" smooth="yes"/>
      <point x="204" y="626"/>
      <point x="218" y="616"/>
      <point x="218" y="593" type="curve" smooth="yes"/>
      <point x="218" y="535" type="line" smooth="yes"/>
      <point x="218" y="502"/>
      <point x="197" y="482"/>
      <point x="172" y="482" type="curve" smooth="yes"/>
      <point x="150" y="482"/>
      <point x="140" y="492"/>
      <point x="140" y="506" type="curve" smooth="yes"/>
      <point x="140" y="525"/>
      <point x="151" y="533"/>
      <point x="198" y="533" type="curve" smooth="yes"/>
      <point x="231" y="533" type="line"/>
      <point x="231" y="593" type="line"/>
      <point x="194" y="593" type="line" smooth="yes"/>
      <point x="65" y="593"/>
      <point x="14" y="568"/>
      <point x="14" y="503" type="curve" smooth="yes"/>
      <point x="14" y="445"/>
      <point x="62" y="402"/>
    </contour>
  </outline>
</glyph>
<glyph name="plusminus" format="2">
  <advance width="600"/>
  <unicode hex="00B1"/>
  <outline>
    <contour>
      <point x="229" y="161" type="line"/>
      <point x="371" y="161" type="line"/>
      <point x="371" y="278" type="line"/>
      <point x="544" y="278" type="line"/>
      <point x="544" y="416" type="line"/>
      <point x="371" y="416" type="line"/>
      <point x="371" y="533" type="line"/>
      <point x="229" y="533" type="line"/>
      <point x="229" y="416" type="line"/>
      <point x="56" y="416" type="line"/>
      <point x="56" y="278" type="line"/>
      <point x="229" y="278" type="line"/>
    </contour>
    <contour>
      <point x="56" y="0" type="line"/>
      <point x="544" y="0" type="line"/>
      <point x="544" y="136" type="line"/>
      <point x="56" y="136" type="line"/>
    </contour>
  </outline>
</glyph>
<glyph name="paragraph" format="2">
  <advance width="693"/>
  <unicode hex="00B6"/>
  <outline>
    <contour>
      <point x="258" y="-180" type="line"/>
      <point x="398" y="-180" type="line"/>
      <point x="398" y="565" type="line"/>
      <point x="495" y="565" type="line"/>
      <point x="495" y="-180" type="line"/>
      <point x="635" y="-180" type="line"/>
      <point x="635" y="705" type="line"/>
      <point x="262" y="705" type="line" smooth="yes"/>
      <point x="116" y="705"/>
      <point x="19" y="613"/>
      <point x="19" y="468" type="curve" smooth="yes"/>
      <point x="19" y="322"/>
      <point x="116" y="229"/>
      <point x="258" y="229" type="curve"/>
    </contour>
  </outline>
</glyph>
<glyph name="germandbls" format="2">
  <advance width="748"/>
  <unicode hex="00DF"/>
  <outline>
    <contour>
      <point x="48" y="0" type="line"/>
      <point x="256" y="0" type="line"/>
      <point x="256" y="468" type="line" smooth="yes"/>
      <point x="256" y="560"/>
      <point x="298" y="601"/>
      <point x="373" y="601" type="curve" smooth="yes"/>
      <point x="419" y="601"/>
      <point x="451" y="572"/>
      <point x="451" y="530" type="curve" smooth="yes"/>
      <point x="451" y="489"/>
      <point x="420" y="462"/>
      <point x="339" y="441" type="curve"/>
      <point x="339" y="290" type="line"/>
      <point x="491" y="256"/>
      <point x="540" y="215"/>
      <point x="540" y="172" type="curve" smooth="yes"/>
      <point x="540" y="147"/>
      <point x="522" y="130"/>
      <point x="485" y="130" type="curve" smooth="yes"/>
      <point x="430" y="130"/>
      <point x="389" y="148"/>
      <point x="338" y="173" type="curve"/>
      <point x="293" y="39" type="line"/>
      <point x="350" y="7"/>
      <point x="398" y="-12"/>
      <point x="495" y="-12" type="curve" smooth="yes"/>
      <point x="639" y="-12"/>
      <point x="734" y="62"/>
      <point x="734" y="179" type="curve" smooth="yes"/>
      <point x="734" y="307"/>
      <point x="634" y="355"/>
      <point x="488" y="393" type="curve"/>
      <point x="488" y="357" type="line"/>
      <point x="606" y="404"/>
      <point x="645" y="470"/>
      <point x="645" y="541" type="curve" smooth="yes"/>
      <point x="645" y="673"/>
      <point x="536" y="747"/>
      <point x="373" y="747" type="curve" smooth="yes"/>
      <point x="162" y="747"/>
      <point x="48" y="643"/>
      <point x="48" y="437" type="curve" smooth="yes"/>
    </contour>
  </outline>
</glyph>
<glyph name="ae" format="2">
  <advance width="854"/>
  <unicode hex="00E6"/>
  <anchor x="404" y="0" name="bottom"/>
  <anchor x="432" y="484" name="top"/>
  <outline>
    <contour>
      <point x="218" y="-12" type="curve" smooth="yes"/>
      <point x="318" y="-12"/>
      <point x="387" y="29"/>
      <point x="417" y="100" type="curve"/>
      <point x="386" y="100" type="line"/>
      <point x="430" y="28"/>
      <point x="507" y="-12"/>
      <point x="622" y="-12" type="curve" smooth="yes"/>
      <point x="698" y="-12"/>
      <point x="771" y="4"/>
      <point x="824" y="39" type="curve"/>
      <point x="772" y="174" type="line"/>
      <point x="731" y="148"/>
      <point x="682" y="140"/>
      <point x="631" y="140" type="curve" smooth="yes"/>
      <point x="554" y="140"/>
      <point x="521" y="171"/>
      <point x="521" y="261" type="curve" smooth="yes"/>
      <point x="521" y="271" type="line" smooth="yes"/>
      <point x="521" y="352"/>
      <point x="546" y="387"/>
      <point x="593" y="387" type="curve" smooth="yes"/>
      <point x="630" y="387"/>
      <point x="656" y="359"/>
      <point x="656" y="293" type="curve"/>
      <point x="673" y="312" type="line"/>
      <point x="507" y="312" type="line"/>
      <point x="507" y="218" type="line"/>
      <point x="828" y="218" type="line"/>
      <point x="828" y="258" type="line" smooth="yes"/>
      <point x="828" y="425"/>
      <point x="737" y="522"/>
      <point x="593" y="522" type="curve" smooth="yes"/>
      <point x="523" y="522"/>
      <point x="473" y="499"/>
      <point x="418" y="450" type="curve"/>
      <point x="461" y="450" type="line"/>
      <point x="422" y="501"/>
      <point x="351" y="522"/>
      <point x="263" y="522" type="curve" smooth="yes"/>
      <point x="180" y="522"/>
      <point x="92" y="500"/>
      <point x="38" y="468" type="curve"/>
      <point x="90" y="332" type="line"/>
      <point x="149" y="359"/>
      <point x="197" y="370"/>
      <point x="250" y="370" type="curve" smooth="yes"/>
      <point x="303" y="370"/>
      <point x="326" y="356"/>
      <point x="326" y="319" type="curve" smooth="yes"/>
      <point x="326" y="196" type="line" smooth="yes"/>
      <point x="326" y="151"/>
      <point x="292" y="123"/>
      <point x="250" y="123" type="curve" smooth="yes"/>
      <point x="214" y="123"/>
      <point x="196" y="141"/>
      <point x="196" y="166" type="curve" smooth="yes"/>
      <point x="196" y="195"/>
      <point x="227" y="218"/>
      <point x="288" y="218" type="curve" smooth="yes"/>
      <point x="341" y="218" type="line"/>
      <point x="341" y="312" type="line"/>
      <point x="292" y="312" type="line" smooth="yes"/>
      <point x="88" y="312"/>
      <point x="18" y="266"/>
      <point x="18" y="159" type="curve" smooth="yes"/>
      <point x="18" y="72"/>
      <point x="89" y="-12"/>
    </contour>
  </outline>
</glyph>
<glyph name="divide" format="2">
  <advance width="600"/>
  <unicode hex="00F7"/>
  <outline>
    <contour>
      <point x="56" y="219" type="line"/>
      <point x="544" y="219" type="line"/>
      <point x="544" y="355" type="line"/>
      <point x="56" y="355" type="line"/>
    </contour>
    <contour>
      <point x="225" y="24" type="line"/>
      <point x="363" y="24" type="line"/>
      <point x="363" y="163" type="line"/>
      <point x="225" y="163" type="line"/>
    </contour>
    <contour>
      <point x="225" y="411" type="line"/>
      <point x="363" y="411" type="line"/>
      <point x="363" y="550" type="line"/>
      <point x="225" y="550" type="line"/>
    </contour>
  </outline>
</glyph>
<glyph name="dcroat" format="2">
  <advance width="657"/>
  <unicode hex="0111"/>
  <outline>
    <contour>
      <point x="251" y="-12" type="curve" smooth="yes"/>
      <point x="326" y="-12"/>
      <point x="393" y="25"/>
      <point x="412" y="78" type="curve"/>
      <point x="402" y="78" type="line"/>
      <point x="402" y="0" type="line"/>
      <point x="607" y="0" type="line"/>
      <point x="607" y="543" type="line"/>
      <point x="690" y="543" type="line"/>
      <point x="690" y="683" type="line"/>
      <point x="607" y="683" type="line"/>
      <point x="607" y="736" type="line"/>
      <point x="399" y="736" type="line"/>
      <point x="399" y="683" type="line"/>
      <point x="212" y="683" type="line"/>
      <point x="212" y="543" type="line"/>
      <point x="399" y="543" type="line"/>
      <point x="399" y="406" type="line"/>
      <point x="410" y="406" type="line"/>
      <point x="390" y="454"/>
      <point x="323" y="490"/>
      <point x="251" y="490" type="curve" smooth="yes"/>
      <point x="119" y="490"/>
      <point x="27" y="394"/>
      <point x="27" y="239" type="curve" smooth="yes"/>
      <point x="27" y="83"/>
      <point x="120" y="-12"/>
    </contour>
    <contour>
      <point x="319" y="140" type="curve" smooth="yes"/>
      <point x="272" y="140"/>
      <point x="236" y="169"/>
      <point x="236" y="239" type="curve" smooth="yes"/>
      <point x="236" y="308"/>
      <point x="272" y="337"/>
      <point x="319" y="337" type="curve" smooth="yes"/>
      <point x="366" y="337"/>
      <point x="402" y="309"/>
      <point x="402" y="239" type="curve" smooth="yes"/>
      <point x="402" y="169"/>
      <point x="366" y="140"/>
    </contour>
  </outline>
</glyph>
<glyph name="hbar" format="2">
  <advance width="635"/>
  <unicode hex="0127"/>
  <outline>
    <contour>
      <point x="48" y="0" type="line"/>
      <point x="256" y="0" type="line"/>
      <point x="256" y="264" type="line" smooth="yes"/>
      <point x="256" y="311"/>
      <point x="286" y="341"/>
      <point x="331" y="341" type="curve" smooth="yes"/>
      <point x="364" y="341"/>
      <point x="382" y="322"/>
      <point x="382" y="271" type="curve" smooth="yes"/>
      <point x="382" y="0" type="line"/>
      <point x="590" y="0" type="line"/>
      <point x="590" y="279" type="line" smooth="yes"/>
      <point x="590" y="429"/>
      <point x="533" y="500"/>
      <point x="413" y="500" type="curve" smooth="yes"/>
      <point x="337" y="500"/>
      <point x="274" y="465"/>
      <point x="240" y="407" type="curve"/>
      <point x="256" y="407" type="line"/>
      <point x="256" y="543" type="line"/>
      <point x="442" y="543" type="line"/>
      <point x="442" y="683" type="line"/>
      <point x="256" y="683" type="line"/>
      <point x="256" y="736" type="line"/>
      <point x="48" y="736" type="line"/>
      <point x="48" y="683" type="line"/>
      <point x="-35" y="683" type="line"/>
      <point x="-35" y="543" type="line"/>
      <point x="48" y="543" type="line"/>
    </contour>
  </outline>
</glyph>
<glyph name="eng" format="2">
  <advance width="635"/>
  <unicode hex="014B"/>
  <outline>
    <contour>
      <point x="48" y="0" type="line"/>
      <point x="256" y="0" type="line"/>
      <point x="256" y="282" type="line" smooth="yes"/>
      <point x="256" y="331"/>
      <point x="286" y="364"/>
      <point x="332" y="364" type="curve" smooth="yes"/>
      <point x="363" y="364"/>
      <point x="382" y="345"/>
      <point x="382" y="291" type="curve" smooth="yes"/>
      <point x="382" y="4" type="line" smooth="yes"/>
      <point x="382" y="-47"/>
      <point x="351" y="-61"/>
      <point x="319" y="-61" type="curve" smooth="yes"/>
      <point x="297" y="-61"/>
      <point x="282" y="-59"/>
      <point x="262" y="-52" type="curve"/>
      <point x="262" y="-210" type="line"/>
      <point x="294" y="-223"/>
      <point x="327" y="-226"/>
      <point x="363" y="-226" type="curve" smooth="yes"/>
      <point x="523" y="-226"/>
      <point x="590" y="-149"/>
      <point x="590" y="-2" type="curve" smooth="yes"/>
      <point x="590" y="299" type="line" smooth="yes"/>
      <point x="590" y="451"/>
      <point x="532" y="522"/>
      <point x="412" y="522" type="curve" smooth="yes"/>
      <point x="337" y="522"/>
      <point x="275" y="488"/>
      <point x="240" y="429" type="curve"/>
      <point x="251" y="429" type="line"/>
      <point x="240" y="510" type="line"/>
      <point x="40" y="510" type="line"/>
      <point x="45" y="462"/>
      <point x="48" y="413"/>
      <point x="48" y="365" type="curve" smooth="yes"/>
    </contour>
  </outline>
</glyph>
<glyph name="OE" format="2">
  <advance width="1053"/>
  <unicode hex="0152"/>
  <anchor x="626" y="0" name="bottom"/>
  <anchor x="626" y="705" name="top"/>
  <outline>
    <contour>
      <point x="517" y="0" type="line"/>
      <point x="1026" y="0" type="line"/>
      <point x="1026" y="164" type="line"/>
      <point x="723" y="164" type="line"/>
      <point x="723" y="276" type="line"/>
      <point x="1002" y="276" type="line"/>
      <point x="1002" y="440" type="line"/>
      <point x="723" y="440" type="line"/>
      <point x="723" y="541" type="line"/>
      <point x="1026" y="541" type="line"/>
      <point x="1026" y="705" type="line"/>
      <point x="517" y="705" type="line"/>
    </contour>
    <contour>
      <point x="386" y="-12" type="curve" smooth="yes"/>
      <point x="430" y="-12"/>
      <point x="495" y="4"/>
      <point x="527" y="34" type="curve"/>
      <point x="527" y="221" type="line"/>
      <point x="505" y="184"/>
      <point x="465" y="167"/>
      <point x="406" y="167" type="curve" smooth="yes"/>
      <point x="310" y="167"/>
      <point x="267" y="236"/>
      <point x="267" y="353" type="curve" smooth="yes"/>
      <point x="267" y="470"/>
      <point x="310" y="538"/>
      <point x="406" y="538" type="curve" smooth="yes"/>
      <point x="465" y="538"/>
      <point x="505" y="512"/>
      <point x="527" y="474" type="curve"/>
      <point x="527" y="677" type="line"/>
      <point x="490" y="707"/>
      <point x="430" y="717"/>
      <point x="386" y="717" type="curve" smooth="yes"/>
      <point x="172" y="717"/>
      <point x="41" y="571"/>
      <point x="41" y="353" type="curve" smooth="yes"/>
      <point x="41" y="136"/>
      <point x="172" y="-12"/>
    </contour>
  </outline>
</glyph>
<glyph name="Bhook" format="2">
  <advance width="911"/>
  <unicode hex="0181"/>
  <outline>
    <contour>
      <point x="261" y="0" type="line"/>
      <point x="632" y="0" type="line" smooth="yes"/>
      <point x="791" y="0"/>
      <point x="891" y="79"/>
      <point x="891" y="202" type="curve" smooth="yes"/>
      <point x="891" y="294"/>
      <point x="837" y="355"/>
      <point x="738" y="375" type="curve"/>
      <point x="738" y="358" type="line"/>
      <point x="820" y="379"/>
      <point x="869" y="441"/>
      <point x="869" y="523" type="curve" smooth="yes"/>
      <point x="869" y="634"/>
      <point x="780" y="705"/>
      <point x="623" y="705" type="curve" smooth="yes"/>
      <point x="250" y="705" type="line" smooth="yes"/>
      <point x="84" y="705"/>
      <point x="0" y="630"/>
      <point x="0" y="491" type="curve" smooth="yes"/>
      <point x="0" y="432" type="line"/>
      <point x="171" y="432" type="line"/>
      <point x="171" y="485" type="line" smooth="yes"/>
      <point x="171" y="539"/>
      <point x="193" y="561"/>
      <point x="246" y="561" type="curve" smooth="yes"/>
      <point x="261" y="561" type="line"/>
    </contour>
    <contour>
      <point x="467" y="156" type="line"/>
      <point x="467" y="280" type="line"/>
      <point x="603" y="280" type="line" smooth="yes"/>
      <point x="662" y="280"/>
      <point x="686" y="259"/>
      <point x="686" y="218" type="curve" smooth="yes"/>
      <point x="686" y="177"/>
      <point x="662" y="156"/>
      <point x="603" y="156" type="curve" smooth="yes"/>
    </contour>
    <contour>
      <point x="467" y="436" type="line"/>
      <point x="467" y="549" type="line"/>
      <point x="582" y="549" type="line" smooth="yes"/>
      <point x="641" y="549"/>
      <point x="664" y="533"/>
      <point x="664" y="493" type="curve" smooth="yes"/>
      <point x="664" y="453"/>
      <point x="641" y="436"/>
      <point x="582" y="436" type="curve" smooth="yes"/>
    </contour>
  </outline>
</glyph>
<glyph name="Schwa" format="2">
  <advance width="795"/>
  <unicode hex="018F"/>
  <anchor x="403" y="0" name="bottom"/>
  <anchor x="384" y="705" name="top"/>
  <outline>
    <contour>
      <point x="403" y="-12" type="curve" smooth="yes"/>
      <point x="605" y="-12"/>
      <point x="754" y="132"/>
      <point x="754" y="352" type="curve" smooth="yes"/>
      <point x="754" y="578"/>
      <point x="616" y="717"/>
      <point x="373" y="717" type="curve" smooth="yes"/>
      <point x="245" y="717"/>
      <point x="151" y="688"/>
      <point x="74" y="645" type="curve"/>
      <point x="143" y="483" type="line"/>
      <point x="209" y="519"/>
      <point x="269" y="538"/>
      <point x="345" y="538" type="curve" smooth="yes"/>
      <point x="486" y="538"/>
      <point x="538" y="476"/>
      <point x="538" y="353" type="curve" smooth="yes"/>
      <point x="538" y="219"/>
      <point x="482" y="158"/>
      <point x="394" y="158" type="curve" smooth="yes"/>
      <point x="291" y="158"/>
      <point x="256" y="219"/>
      <point x="256" y="353" type="curve"/>
      <point x="203" y="271" type="line"/>
      <point x="586" y="271" type="line"/>
      <point x="586" y="432" type="line"/>
      <point x="41" y="432" type="line"/>
      <point x="41" y="370" type="line" smooth="yes"/>
      <point x="41" y="145"/>
      <point x="155" y="-12"/>
    </contour>
  </outline>
</glyph>
<glyph name="schwa" format="2">
  <advance width="555"/>
  <unicode hex="0259"/>
  <outline>
    <contour>
      <point x="264" y="-12" type="curve" smooth="yes"/>
      <point x="424" y="-12"/>
      <point x="528" y="100"/>
      <point x="528" y="254" type="curve" smooth="yes"/>
      <point x="528" y="419"/>
      <point x="418" y="522"/>
      <point x="246" y="522" type="curve" smooth="yes"/>
      <point x="160" y="522"/>
      <point x="93" y="507"/>
      <point x="40" y="478" type="curve"/>
      <point x="82" y="337" type="line"/>
      <point x="124" y="360"/>
      <point x="168" y="369"/>
      <point x="209" y="369" type="curve" smooth="yes"/>
      <point x="296" y="369"/>
      <point x="332" y="338"/>
      <point x="332" y="250" type="curve" smooth="yes"/>
      <point x="332" y="219" type="line" smooth="yes"/>
      <point x="332" y="158"/>
      <point x="309" y="123"/>
      <point x="262" y="123" type="curve" smooth="yes"/>
      <point x="222" y="123"/>
      <point x="198" y="152"/>
      <point x="198" y="217" type="curve"/>
      <point x="181" y="198" type="line"/>
      <point x="352" y="198" type="line"/>
      <point x="352" y="292" type="line"/>
      <point x="26" y="292" type="line"/>
      <point x="26" y="237" type="line" smooth="yes"/>
      <point x="26" y="82"/>
      <point x="114" y="-12"/>
    </contour>
  </outline>
</glyph>
<glyph name="apostrophemod" format="2">
  <advance width="400"/>
  <unicode hex="02BC"/>
  <outline>
    <contour>
      <point x="227" y="558" type="line"/>
      <point x="279" y="601"/>
      <point x="295" y="650"/>
      <point x="295" y="715" type="curve" smooth="yes"/>
      <point x="295" y="795" type="line"/>
      <point x="104" y="795" type="line"/>
      <point x="104" y="656" type="line"/>
      <point x="237" y="656" type="line"/>
      <point x="197" y="679" type="line"/>
      <point x="197" y="651"/>
      <point x="187" y="625"/>
      <point x="159" y="603" type="curve"/>
    </contour>
  </outline>
</glyph>
<glyph name="ringhalfleft" format="2">
  <advance width="500"/>
  <unicode hex="02BF"/>
  <anchor x="250" y="484" name="_top"/>
  <anchor x="250" y="685" name="top"/>
  <outline>
    <contour>
      <point x="250" y="547" type="curve"/>
      <point x="250" y="620" type="line"/>
      <point x="227" y="620"/>
      <point x="211" y="639"/>
      <point x="211" y="662" type="curve" smooth="yes"/>
      <point x="211" y="685"/>
      <point x="227" y="703"/>
      <point x="250" y="703" type="curve"/>
      <point x="250" y="776" type="line"/>
      <point x="185" y="776"/>
      <point x="134" y="726"/>
      <point x="134" y="662" type="curve" smooth="yes"/>
      <point x="134" y="597"/>
      <point x="185" y="547"/>
    </contour>
  </outline>
</glyph>
<glyph name="brevecomb" format="2">
  <unicode hex="0306"/>
  <anchor x="0" y="484" name="_top"/>
  <anchor x="0" y="685" name="top"/>
  <outline>
    <contour>
      <point x="0" y="554" type="curve" smooth="yes"/>
      <point x="112" y="554"/>
      <point x="188" y="633"/>
      <point x="188" y="754" type="curve"/>
      <point x="79" y="763" type="line"/>
      <point x="74" y="703"/>
      <point x="46" y="670"/>
      <point x="0" y="670" type="curve" smooth="yes"/>
      <point x="-46" y="670"/>
      <point x="-74" y="703"/>
      <point x="-79" y="763" type="curve"/>
      <point x="-188" y="754" type="line"/>
      <point x="-188" y="633"/>
      <point x="-112" y="554"/>
    </contour>
  </outline>
</glyph>
<glyph name="breveinvertedcomb" format="2">
  <unicode hex="0311"/>
  <anchor x="0" y="484" name="_top"/>
  <anchor x="0" y="685" name="top"/>
  <outline>
    <contour>
      <point x="-79" y="554" type="line"/>
      <point x="-74" y="614"/>
      <point x="-46" y="647"/>
      <point x="0" y="647" type="curve" smooth="yes"/>
      <point x="46" y="647"/>
      <point x="74" y="614"/>
      <point x="79" y="554" type="curve"/>
      <point x="188" y="563" type="line"/>
      <point x="188" y="684"/>
      <point x="112" y="763"/>
      <point x="0" y="763" type="curve" smooth="yes"/>
      <point x="-112" y="763"/>
      <point x="-188" y="684"/>
      <point x="-188" y="563" type="curve"/>
    </contour>
  </outline>
</glyph>
<glyph name="mu" format="2">
  <advance width="630"/>
  <unicode hex="03BC"/>
  <outline>
    <contour>
      <point x="45" y="-216" type="line"/>
      <point x="253" y="-216" type="line"/>
      <point x="237" y="20" type="line"/>
      <point x="241" y="20" type="line"/>
      <point x="255" y="0"/>
      <point x="269" y="-12"/>
      <point x="297" y="-12" type="curve" smooth="yes"/>
      <point x="333" y="-12"/>
      <point x="368" y="22"/>
      <point x="375" y="84" type="curve"/>
      <point x="379" y="84" type="line"/>
      <point x="379" y="0" type="line"/>
      <point x="582" y="0" type="line"/>
      <point x="582" y="510" type="line"/>
      <point x="374" y="510" type="line"/>
      <point x="374" y="228" type="line" smooth="yes"/>
      <point x="374" y="178"/>
      <point x="344" y="146"/>
      <point x="304" y="146" type="curve" smooth="yes"/>
      <point x="270" y="146"/>
      <point x="253" y="166"/>
      <point x="253" y="208" type="curve" smooth="yes"/>
      <point x="253" y="510" type="line"/>
      <point x="45" y="510" type="line"/>
    </contour>
  </outline>
</glyph>
<glyph name="Dje-cy" format="2">
  <advance width="931"/>
  <unicode hex="0402"/>
  <outline>
    <contour>
      <point x="614" y="-192" type="curve" smooth="yes"/>
      <point x="775" y="-192"/>
      <point x="888" y="-94"/>
      <point x="888" y="77" type="curve" smooth="yes"/>
      <point x="888" y="147" type="line" smooth="yes"/>
      <point x="888" y="355"/>
      <point x="765" y="455"/>
      <point x="553" y="455" type="curve" smooth="yes"/>
      <point x="508" y="455"/>
      <point x="459" y="447"/>
      <point x="432" y="438" type="curve"/>
      <point x="432" y="531" type="line"/>
      <point x="635" y="531" type="line"/>
      <point x="635" y="705" type="line"/>
      <point x="12" y="705" type="line"/>
      <point x="12" y="531" type="line"/>
      <point x="216" y="531" type="line"/>
      <point x="216" y="0" type="line"/>
      <point x="432" y="0" type="line"/>
      <point x="432" y="263" type="line"/>
      <point x="461" y="272"/>
      <point x="496" y="278"/>
      <point x="526" y="278" type="curve" smooth="yes"/>
      <point x="615" y="278"/>
      <point x="674" y="240"/>
      <point x="674" y="141" type="curve" smooth="yes"/>
      <point x="674" y="67" type="line" smooth="yes"/>
      <point x="674" y="8"/>
      <point x="639" y="-29"/>
      <point x="586" y="-29" type="curve" smooth="yes"/>
      <point x="560" y="-29"/>
      <point x="532" y="-25"/>
      <point x="508" y="-19" type="curve"/>
      <point x="477" y="-171" type="line"/>
      <point x="514" y="-184"/>
      <point x="562" y="-192"/>
    </contour>
  </outline>
</glyph>
<glyph name="Lje-cy" format="2">
  <advance width="1172"/>
  <unicode hex="0409"/>
  <outline>
    <contour>
      <point x="116" y="-20" type="line"/>
      <point x="268" y="52"/>
      <point x="361" y="205"/>
      <point x="361" y="431" type="curve" smooth="yes"/>
      <point x="361" y="533" type="line"/>
      <point x="519" y="533" type="line"/>
      <point x="519" y="0" type="line"/>
      <point x="894" y="0" type="line" smooth="yes"/>
      <point x="1053" y="0"/>
      <point x="1151" y="80"/>
      <point x="1151" y="221" type="curve" smooth="yes"/>
      <point x="1151" y="361"/>
      <point x="1053" y="441"/>
      <point x="894" y="441" type="curve" smooth="yes"/>
      <point x="733" y="441" type="line"/>
      <point x="733" y="705" type="line"/>
      <point x="164" y="705" type="line"/>
      <point x="164" y="484" type="line" smooth="yes"/>
      <point x="164" y="295"/>
      <point x="122" y="197"/>
      <point x="8" y="130" type="curve"/>
    </contour>
    <contour>
      <point x="733" y="159" type="line"/>
      <point x="733" y="283" type="line"/>
      <point x="864" y="283" type="line" smooth="yes"/>
      <point x="925" y="283"/>
      <point x="949" y="262"/>
      <point x="949" y="221" type="curve" smooth="yes"/>
      <point x="949" y="179"/>
      <point x="925" y="159"/>
      <point x="864" y="159" type="curve" smooth="yes"/>
    </contour>
  </outline>
</glyph>
<glyph name="Dzhe-cy" format="2">
  <advance width="785"/>
  <unicode hex="040F"/>
  <outline>
    <contour>
      <point x="300" y="-180" type="line"/>
      <point x="485" y="-180" type="line"/>
      <point x="485" y="0" type="line"/>
      <point x="727" y="0" type="line"/>
      <point x="727" y="705" type="line"/>
      <point x="513" y="705" type="line"/>
      <point x="513" y="172" type="line"/>
      <point x="272" y="172" type="line"/>
      <point x="272" y="705" type="line"/>
      <point x="58" y="705" type="line"/>
      <point x="58" y="0" type="line"/>
      <point x="300" y="0" type="line"/>
    </contour>
  </outline>
</glyph>
<glyph name="Ge-cy" format="2">
  <advance width="603"/>
  <unicode hex="0413"/>
  <anchor x="72" y="0" name="bottomright"/>
  <anchor x="178" y="359" name="stroke"/>
  <anchor x="291" y="705" name="top"/>
  <outline>
    <contour>
      <point x="58" y="0" type="line"/>
      <point x="272" y="0" type="line"/>
      <point x="272" y="533" type="line"/>
      <point x="584" y="533" type="line"/>
      <point x="584" y="705" type="line"/>
      <point x="58" y="705" type="line"/>
    </contour>
  </outline>
</glyph>
<glyph name="De-cy" format="2">
  <advance width="858"/>
  <unicode hex="0414"/>
  <outline>
    <contour>
      <point x="9" y="-180" type="line"/>
      <point x="193" y="-180" type="line"/>
      <point x="193" y="0" type="line"/>
      <point x="652" y="0" type="line"/>
      <point x="652" y="-180" type="line"/>
      <point x="836" y="-180" type="line"/>
      <point x="836" y="162" type="line"/>
      <point x="733" y="162" type="line"/>
      <point x="733" y="705" type="line"/>
      <point x="165" y="705" type="line"/>
      <point x="165" y="516" type="line" smooth="yes"/>
      <point x="165" y="348"/>
      <point x="137" y="229"/>
      <point x="83" y="162" type="curve"/>
      <point x="9" y="162" type="line"/>
    </contour>
    <contour>
      <point x="294" y="162" type="line"/>
      <point x="338" y="233"/>
      <point x="361" y="343"/>
      <point x="361" y="492" type="curve" smooth="yes"/>
      <point x="361" y="543" type="line"/>
      <point x="519" y="543" type="line"/>
      <point x="519" y="162" type="line"/>
    </contour>
  </outline>
</glyph>
<glyph name="Zhe-cy" format="2">
  <advance width="1122"/>
  <unicode hex="0416"/>
  <anchor x="905" y="0" name="bottomright"/>
  <anchor x="561" y="705" name="top"/>
  <outline>
    <contour>
      <point x="-9" y="0" type="line"/>
      <point x="222" y="0" type="line"/>
      <point x="314" y="195" type="line" smooth="yes"/>
      <point x="336" y="242"/>
      <point x="366" y="260"/>
      <point x="424" y="260" type="curve" smooth="yes"/>
      <point x="459" y="260" type="line"/>
      <point x="459" y="0" type="line"/>
      <point x="664" y="0" type="line"/>
      <point x="664" y="260" type="line"/>
      <point x="699" y="260" type="line" smooth="yes"/>
      <point x="757" y="260"/>
      <point x="787" y="241"/>
      <point x="809" y="195" type="curve" smooth="yes"/>
      <point x="900" y="0" type="line"/>
      <point x="1131" y="0" type="line"/>
      <point x="1001" y="262" type="line" smooth="yes"/>
      <point x="955" y="355"/>
      <point x="894" y="404"/>
      <point x="793" y="424" type="curve"/>
      <point x="879" y="369" type="line"/>
      <point x="1096" y="705" type="line"/>
      <point x="863" y="705" type="line"/>
      <point x="689" y="413" type="line"/>
      <point x="717" y="432" type="line"/>
      <point x="664" y="432" type="line"/>
      <point x="664" y="705" type="line"/>
      <point x="459" y="705" type="line"/>
      <point x="459" y="432" type="line"/>
      <point x="406" y="432" type="line"/>
      <point x="435" y="413" type="line"/>
      <point x="259" y="705" type="line"/>
      <point x="26" y="705" type="line"/>
      <point x="244" y="369" type="line"/>
      <point x="330" y="424" type="line"/>
      <point x="228" y="404"/>
      <point x="169" y="355"/>
      <point x="122" y="262" type="curve" smooth="yes"/>
    </contour>
  </outline>
</glyph>
<glyph name="Ii-cy" format="2">
  <advance width="771"/>
  <unicode hex="0418"/>
  <anchor x="513" y="0" name="bottomright"/>
  <anchor x="386" y="705" name="top"/>
  <outline>
    <contour>
      <point x="58" y="0" type="line"/>
      <point x="215" y="0" type="line"/>
      <point x="540" y="399" type="line"/>
      <point x="513" y="399" type="line"/>
      <point x="513" y="0" type="line"/>
      <point x="713" y="0" type="line"/>
      <point x="713" y="705" type="line"/>
      <point x="556" y="705" type="line"/>
      <point x="231" y="306" type="line"/>
      <point x="258" y="306" type="line"/>
      <point x="258" y="705" type="line"/>
      <point x="58" y="705" type="line"/>
    </contour>
  </outline>
</glyph>
<glyph name="Pe-cy" format="2">
  <advance width="785"/>
  <unicode hex="041F"/>
  <anchor x="525" y="0" name="bottomright"/>
  <outline>
    <contour>
      <point x="58" y="0" type="line"/>
      <point x="272" y="0" type="line"/>
      <point x="272" y="533" type="line"/>
      <point x="513" y="533" type="line"/>
      <point x="513" y="0" type="line"/>
      <point x="727" y="0" type="line"/>
      <point x="727" y="705" type="line"/>
      <point x="58" y="705" type="line"/>
    </contour>
  </outline>
</glyph>
<glyph name="Hardsign-cy" format="2">
  <advance width="863"/>
  <unicode hex="042A"/>
  <outline>
    <contour>
      <point x="209" y="0" type="line"/>
      <point x="584" y="0" type="line" smooth="yes"/>
      <point x="743" y="0"/>
      <point x="842" y="80"/>
      <point x="842" y="221" type="curve" smooth="yes"/>
      <point x="842" y="361"/>
      <point x="743" y="441"/>
      <point x="584" y="441" type="curve" smooth="yes"/>
      <point x="423" y="441" type="line"/>
      <point x="423" y="705" type="line"/>
      <point x="12" y="705" type="line"/>
      <point x="12" y="533" type="line"/>
      <point x="209" y="533" type="line"/>
    </contour>
    <contour>
      <point x="423" y="159" type="line"/>
      <point x="423" y="283" type="line"/>
      <point x="555" y="283" type="line" smooth="yes"/>
      <point x="616" y="283"/>
      <point x="639" y="262"/>
      <point x="639" y="221" type="curve" smooth="yes"/>
      <point x="639" y="179"/>
      <point x="616" y="159"/>
      <point x="555" y="159" type="curve" smooth="yes"/>
    </contour>
  </outline>
</glyph>
<glyph name="Ereversed-cy" format="2">
  <advance width="709"/>
  <unicode hex="042D"/>
  <anchor x="325" y="0" name="bottom"/>
  <anchor x="325" y="705" name="top"/>
  <outline>
    <contour>
      <point x="273" y="-12" type="curve" smooth="yes"/>
      <point x="519" y="-12"/>
      <point x="668" y="133"/>
      <point x="668" y="353" type="curve" smooth="yes"/>
      <point x="668" y="572"/>
      <point x="518" y="717"/>
      <point x="282" y="717" type="curve" smooth="yes"/>
      <point x="186" y="717"/>
      <point x="88" y="686"/>
      <point x="25" y="641" type="curve"/>
      <point x="87" y="473" type="line"/>
      <point x="156" y="517"/>
      <point x="213" y="532"/>
      <point x="274" y="532" type="curve" smooth="yes"/>
      <point x="368" y="532"/>
      <point x="434" y="483"/>
      <point x="445" y="388" type="curve"/>
      <point x="495" y="440" type="line"/>
      <point x="173" y="440" type="line"/>
      <point x="173" y="278" type="line"/>
      <point x="498" y="278" type="line"/>
      <point x="447" y="331" type="line"/>
      <point x="436" y="219"/>
      <point x="368" y="173"/>
      <point x="265" y="173" type="curve" smooth="yes"/>
      <point x="205" y="173"/>
      <point x="147" y="191"/>
      <point x="87" y="232" type="curve"/>
      <point x="25" y="64" type="line"/>
      <point x="79" y="19"/>
      <point x="177" y="-12"/>
    </contour>
  </outline>
</glyph>
<glyph name="Iu-cy" format="2">
  <advance width="1134"/>
  <unicode hex="042E"/>
  <outline>
    <contour>
      <point x="724" y="-12" type="curve" smooth="yes"/>
      <point x="944" y="-12"/>
      <point x="1093" y="134"/>
      <point x="1093" y="353" type="curve" smooth="yes"/>
      <point x="1093" y="571"/>
      <point x="945" y="717"/>
      <point x="724" y="717" type="curve" smooth="yes"/>
      <point x="537" y="717"/>
      <point x="403" y="610"/>
      <point x="367" y="443" type="curve"/>
      <point x="272" y="443" type="line"/>
      <point x="272" y="705" type="line"/>
      <point x="58" y="705" type="line"/>
      <point x="58" y="0" type="line"/>
      <point x="272" y="0" type="line"/>
      <point x="272" y="271" type="line"/>
      <point x="366" y="271" type="line"/>
      <point x="399" y="99"/>
      <point x="535" y="-12"/>
    </contour>
    <contour>
      <point x="725" y="165" type="curve" smooth="yes"/>
      <point x="634" y="165"/>
      <point x="580" y="235"/>
      <point x="580" y="353" type="curve" smooth="yes"/>
      <point x="580" y="471"/>
      <point x="634" y="540"/>
      <point x="725" y="540" type="curve" smooth="yes"/>
      <point x="816" y="540"/>
      <point x="871" y="470"/>
      <point x="871" y="353" type="curve" smooth="yes"/>
      <point x="871" y="236"/>
      <point x="816" y="165"/>
    </contour>
  </outline>
</glyph>
<glyph name="Ia-cy" format="2">
  <advance width="738"/>
  <unicode hex="042F"/>
  <outline>
    <contour>
      <point x="14" y="0" type="line"/>
      <point x="249" y="0" type="line"/>
      <point x="375" y="222" type="line" smooth="yes"/>
      <point x="387" y="242"/>
      <point x="408" y="252"/>
      <point x="434" y="252" type="curve" smooth="yes"/>
      <point x="466" y="252" type="line"/>
      <point x="466" y="0" type="line"/>
      <point x="680" y="0" type="line"/>
      <point x="680" y="705" type="line"/>
      <point x="314" y="705" type="line" smooth="yes"/>
      <point x="148" y="705"/>
      <point x="54" y="620"/>
      <point x="54" y="480" type="curve" smooth="yes"/>
      <point x="54" y="340"/>
      <point x="148" y="254"/>
      <point x="316" y="254" type="curve"/>
      <point x="310" y="273" type="line"/>
      <point x="260" y="273" type="line" smooth="yes"/>
      <point x="201" y="273"/>
      <point x="155" y="245"/>
      <point x="123" y="191" type="curve" smooth="yes"/>
    </contour>
    <contour>
      <point x="352" y="401" type="line" smooth="yes"/>
      <point x="290" y="401"/>
      <point x="257" y="424"/>
      <point x="257" y="472" type="curve" smooth="yes"/>
      <point x="257" y="520"/>
      <point x="290" y="543"/>
      <point x="352" y="543" type="curve" smooth="yes"/>
      <point x="466" y="543" type="line"/>
      <point x="466" y="401" type="line"/>
    </contour>
  </outline>
</glyph>
<glyph name="be-cy" format="2">
  <advance width="652"/>
  <unicode hex="0431"/>
  <outline>
    <contour>
      <point x="334" y="-12" type="curve" smooth="yes"/>
      <point x="501" y="-12"/>
      <point x="615" y="87"/>
      <point x="615" y="245" type="curve" smooth="yes"/>
      <point x="615" y="393"/>
      <point x="521" y="482"/>
      <point x="401" y="482" type="curve" smooth="yes"/>
      <point x="285" y="482"/>
      <point x="223" y="410"/>
      <point x="205" y="323" type="curve"/>
      <point x="230" y="323" type="line"/>
      <point x="230" y="400" type="line" smooth="yes"/>
      <point x="230" y="477"/>
      <point x="275" y="538"/>
      <point x="364" y="553" type="curve" smooth="yes"/>
      <point x="583" y="590" type="line"/>
      <point x="530" y="748" type="line"/>
      <point x="343" y="716" type="line" smooth="yes"/>
      <point x="145" y="682"/>
      <point x="37" y="562"/>
      <point x="37" y="363" type="curve" smooth="yes"/>
      <point x="37" y="280" type="line" smooth="yes"/>
      <point x="37" y="86"/>
      <point x="152" y="-12"/>
    </contour>
    <contour>
      <point x="327" y="139" type="curve" smooth="yes"/>
      <point x="274" y="139"/>
      <point x="244" y="170"/>
      <point x="244" y="235" type="curve" smooth="yes"/>
      <point x="244" y="300"/>
      <point x="274" y="332"/>
      <point x="326" y="332" type="curve" smooth="yes"/>
      <point x="378" y="332"/>
      <point x="408" y="300"/>
      <point x="408" y="235" type="curve" smooth="yes"/>
      <point x="408" y="169"/>
      <point x="379" y="139"/>
    </contour>
  </outline>
</glyph>
<glyph name="ve-cy" format="2">
  <advance width="618"/>
  <unicode hex="0432"/>
  <outline>
    <contour>
      <point x="54" y="0" type="line"/>
      <point x="383" y="0" type="line" smooth="yes"/>
      <point x="521" y="0"/>
      <point x="594" y="56"/>
      <point x="594" y="145" type="curve" smooth="yes"/>
      <point x="594" y="216"/>
      <point x="557" y="262"/>
      <point x="463" y="274" type="curve"/>
      <point x="462" y="257" type="line"/>
      <point x="530" y="271"/>
      <point x="574" y="315"/>
      <point x="574" y="377" type="curve" smooth="yes"/>
      <point x="574" y="457"/>
      <point x="521" y="510"/>
      <point x="374" y="510" type="curve" smooth="yes"/>
      <point x="54" y="510" type="line"/>
    </contour>
    <contour>
      <point x="243" y="117" type="line"/>
      <point x="243" y="202" type="line"/>
      <point x="353" y="202" type="line" smooth="yes"/>
      <point x="390" y="202"/>
      <point x="409" y="189"/>
      <point x="409" y="160" type="curve" smooth="yes"/>
      <point x="409" y="130"/>
      <point x="390" y="117"/>
      <point x="353" y="117" type="curve" smooth="yes"/>
    </contour>
    <contour>
      <point x="243" y="319" type="line"/>
      <point x="243" y="393" type="line"/>
      <point x="341" y="393" type="line" smooth="yes"/>
      <point x="371" y="393"/>
      <point x="388" y="383"/>
      <point x="388" y="357" type="curve" smooth="yes"/>
      <point x="388" y="332"/>
      <point x="371" y="319"/>
      <point x="341" y="319" type="curve" smooth="yes"/>
    </contour>
  </outline>
</glyph>
<glyph name="ge-cy" format="2">
  <advance width="508"/>
  <unicode hex="0433"/>
  <anchor x="69" y="0" name="bottomright"/>
  <anchor x="194" y="256" name="center"/>
  <anchor x="251" y="484" name="top"/>
  <outline>
    <contour>
      <point x="54" y="0" type="line"/>
      <point x="262" y="0" type="line"/>
      <point x="262" y="350" type="line"/>
      <point x="487" y="350" type="line"/>
      <point x="487" y="510" type="line"/>
      <point x="54" y="510" type="line"/>
    </contour>
  </outline>
</glyph>
<glyph name="zhe-cy" format="2">
  <advance width="926"/>
  <unicode hex="0436"/>
  <anchor x="743" y="0" name="bottomright"/>
  <anchor x="463" y="484" name="top"/>
  <outline>
    <contour>
      <point x="-17" y="0" type="line"/>
      <point x="202" y="0" type="line"/>
      <point x="276" y="144" type="line" smooth="yes"/>
      <point x="290" y="170"/>
      <point x="306" y="180"/>
      <point x="330" y="180" type="curve" smooth="yes"/>
      <point x="360" y="180" type="line"/>
      <point x="360" y="0" type="line"/>
      <point x="566" y="0" type="line"/>
      <point x="566" y="180" type="line"/>
      <point x="595" y="180" type="line" smooth="yes"/>
      <point x="619" y="180"/>
      <point x="635" y="170"/>
      <point x="649" y="144" type="curve" smooth="yes"/>
      <point x="723" y="0" type="line"/>
      <point x="943" y="0" type="line"/>
      <point x="832" y="213" type="line" smooth="yes"/>
      <point x="808" y="258"/>
      <point x="764" y="300"/>
      <point x="712" y="307" type="curve"/>
      <point x="747" y="241" type="line"/>
      <point x="927" y="510" type="line"/>
      <point x="708" y="510" type="line"/>
      <point x="594" y="336" type="line"/>
      <point x="566" y="336" type="line"/>
      <point x="566" y="510" type="line"/>
      <point x="360" y="510" type="line"/>
      <point x="360" y="336" type="line"/>
      <point x="331" y="336" type="line"/>
      <point x="217" y="510" type="line"/>
      <point x="-2" y="510" type="line"/>
      <point x="178" y="241" type="line"/>
      <point x="214" y="307" type="line"/>
      <point x="161" y="300"/>
      <point x="117" y="258"/>
      <point x="93" y="213" type="curve" smooth="yes"/>
    </contour>
  </outline>
</glyph>
<glyph name="en-cy" format="2">
  <advance width="656"/>
  <unicode hex="043D"/>
  <anchor x="410" y="0" name="bottomright"/>
  <outline>
    <contour>
      <point x="54" y="0" type="line"/>
      <point x="260" y="0" type="line"/>
      <point x="260" y="180" type="line"/>
      <point x="396" y="180" type="line"/>
      <point x="396" y="0" type="line"/>
      <point x="602" y="0" type="line"/>
      <point x="602" y="510" type="line"/>
      <point x="396" y="510" type="line"/>
      <point x="396" y="336" type="line"/>
      <point x="260" y="336" type="line"/>
      <point x="260" y="510" type="line"/>
      <point x="54" y="510" type="line"/>
    </contour>
  </outline>
</glyph>
<glyph name="che-cy" format="2">
  <advance width="624"/>
  <unicode hex="0447"/>
  <anchor x="379" y="0" name="bottomright"/>
  <anchor x="303" y="207" name="center"/>
  <anchor x="303" y="484" name="top"/>
  <outline>
    <contour>
      <point x="369" y="0" type="line"/>
      <point x="570" y="0" type="line"/>
      <point x="570" y="510" type="line"/>
      <point x="364" y="510" type="line"/>
      <point x="364" y="304" type="line"/>
      <point x="353" y="300"/>
      <point x="336" y="297"/>
      <point x="320" y="297" type="curve" smooth="yes"/>
      <point x="260" y="297"/>
      <point x="241" y="323"/>
      <point x="241" y="386" type="curve" smooth="yes"/>
      <point x="241" y="510" type="line"/>
      <point x="34" y="510" type="line"/>
      <point x="34" y="366" type="line" smooth="yes"/>
      <point x="34" y="214"/>
      <point x="116" y="135"/>
      <point x="276" y="135" type="curve" smooth="yes"/>
      <point x="305" y="135"/>
      <point x="336" y="138"/>
      <point x="369" y="147" type="curve"/>
    </contour>
  </outline>
</glyph>
<glyph name="hardsign-cy" format="2">
  <advance width="684"/>
  <unicode hex="044A"/>
  <outline>
    <contour>
      <point x="145" y="0" type="line"/>
      <point x="448" y="0" type="line" smooth="yes"/>
      <point x="580" y="0"/>
      <point x="666" y="75"/>
      <point x="666" y="186" type="curve" smooth="yes"/>
      <point x="666" y="303"/>
      <point x="592" y="363"/>
      <point x="448" y="363" type="curve" smooth="yes"/>
      <point x="351" y="363" type="line"/>
      <point x="351" y="510" type="line"/>
      <point x="10" y="510" type="line"/>
      <point x="10" y="350" type="line"/>
      <point x="145" y="350" type="line"/>
    </contour>
    <contour>
      <point x="351" y="128" type="line"/>
      <point x="351" y="235" type="line"/>
      <point x="412" y="235" type="line" smooth="yes"/>
      <point x="457" y="235"/>
      <point x="480" y="220"/>
      <point x="480" y="183" type="curve" smooth="yes"/>
      <point x="480" y="147"/>
      <point x="455" y="128"/>
      <point x="412" y="128" type="curve" smooth="yes"/>
    </contour>
  </outline>
</glyph>
<glyph name="dje-cy" format="2">
  <advance width="652"/>
  <unicode hex="0452"/>
  <outline>
    <contour>
      <point x="373" y="-188" type="line"/>
      <point x="549" y="-137"/>
      <point x="600" y="-49"/>
      <point x="600" y="69" type="curve" smooth="yes"/>
      <point x="600" y="269" type="line" smooth="yes"/>
      <point x="600" y="419"/>
      <point x="543" y="490"/>
      <point x="423" y="490" type="curve" smooth="yes"/>
      <point x="347" y="490"/>
      <point x="284" y="455"/>
      <point x="250" y="397" type="curve"/>
      <point x="266" y="397" type="line"/>
      <point x="266" y="543" type="line"/>
      <point x="452" y="543" type="line"/>
      <point x="452" y="683" type="line"/>
      <point x="266" y="683" type="line"/>
      <point x="266" y="736" type="line"/>
      <point x="58" y="736" type="line"/>
      <point x="58" y="683" type="line"/>
      <point x="-25" y="683" type="line"/>
      <point x="-25" y="543" type="line"/>
      <point x="58" y="543" type="line"/>
      <point x="58" y="0" type="line"/>
      <point x="266" y="0" type="line"/>
      <point x="266" y="254" type="line" smooth="yes"/>
      <point x="266" y="301"/>
      <point x="296" y="331"/>
      <point x="341" y="331" type="curve" smooth="yes"/>
      <point x="374" y="331"/>
      <point x="392" y="312"/>
      <point x="392" y="261" type="curve" smooth="yes"/>
      <point x="392" y="69" type="line" smooth="yes"/>
      <point x="392" y="1"/>
      <point x="378" y="-19"/>
      <point x="306" y="-42" type="curve"/>
    </contour>
  </outline>
</glyph>
<glyph name="lje-cy" format="2">
  <advance width="924"/>
  <unicode hex="0459"/>
  <outline>
    <contour>
      <point x="67" y="-18" type="line"/>
      <point x="228" y="-5"/>
      <point x="305" y="111"/>
      <point x="305" y="298" type="curve" smooth="yes"/>
      <point x="305" y="354" type="line"/>
      <point x="390" y="354" type="line"/>
      <point x="390" y="0" type="line"/>
      <point x="688" y="0" type="line" smooth="yes"/>
      <point x="819" y="0"/>
      <point x="906" y="75"/>
      <point x="906" y="186" type="curve" smooth="yes"/>
      <point x="906" y="303"/>
      <point x="832" y="363"/>
      <point x="688" y="363" type="curve" smooth="yes"/>
      <point x="591" y="363" type="line"/>
      <point x="591" y="510" type="line"/>
      <point x="119" y="510" type="line"/>
      <point x="119" y="305" type="line" smooth="yes"/>
      <point x="119" y="206"/>
      <point x="87" y="156"/>
      <point x="11" y="144" type="curve"/>
    </contour>
    <contour>
      <point x="591" y="128" type="line"/>
      <point x="591" y="235" type="line"/>
      <point x="652" y="235" type="line" smooth="yes"/>
      <point x="697" y="235"/>
      <point x="719" y="220"/>
      <point x="719" y="183" type="curve" smooth="yes"/>
      <point x="719" y="147"/>
      <point x="695" y="128"/>
      <point x="652" y="128" type="curve" smooth="yes"/>
    </contour>
  </outline>
</glyph>
<glyph name="dzhe-cy" format="2">
  <advance width="653"/>
  <unicode hex="045F"/>
  <outline>
    <contour>
      <point x="239" y="-130" type="line"/>
      <point x="413" y="-130" type="line"/>
      <point x="413" y="0" type="line"/>
      <point x="599" y="0" type="line"/>
      <point x="599" y="510" type="line"/>
      <point x="393" y="510" type="line"/>
      <point x="393" y="156" type="line"/>
      <point x="260" y="156" type="line"/>
      <point x="260" y="510" type="line"/>
      <point x="54" y="510" type="line"/>
      <point x="54" y="0" type="line"/>
      <point x="239" y="0" type="line"/>
    </contour>
  </outline>
</glyph>
<glyph name="yat-cy" format="2">
  <advance width="684"/>
  <unicode hex="0463"/>
  <outline>
    <contour>
      <point x="145" y="0" type="line"/>
      <point x="462" y="0" type="line" smooth="yes"/>
      <point x="586" y="0"/>
      <point x="666" y="55"/>
      <point x="666" y="164" type="curve" smooth="yes"/>
      <point x="666" y="272"/>
      <point x="587" y="326"/>
      <point x="462" y="326" type="curve" smooth="yes"/>
      <point x="351" y="326" type="line"/>
      <point x="351" y="382" type="line"/>
      <point x="526" y="382" type="line"/>
      <point x="526" y="510" type="line"/>
      <point x="351" y="510" type="line"/>
      <point x="351" y="736" type="line"/>
      <point x="145" y="736" type="line"/>
      <point x="145" y="510" type="line"/>
      <point x="10" y="510" type="line"/>
      <point x="10" y="382" type="line"/>
      <point x="145" y="382" type="line"/>
    </contour>
    <contour>
      <point x="351" y="114" type="line"/>
      <point x="351" y="211" type="line"/>
      <point x="419" y="211" type="line" smooth="yes"/>
      <point x="457" y="211"/>
      <point x="480" y="197"/>
      <point x="480" y="164" type="curve" smooth="yes"/>
      <point x="480" y="131"/>
      <point x="457" y="114"/>
      <point x="419" y="114" type="curve" smooth="yes"/>
    </contour>
  </outline>
</glyph>
<glyph name="Izhitsa-cy" format="2">
  <advance width="840"/>
  <unicode hex="0474"/>
  <outline>
    <contour>
      <point x="287" y="0" type="line"/>
      <point x="459" y="0" type="line"/>
      <point x="651" y="398" type="line" smooth="yes"/>
      <point x="705" y="510"/>
      <point x="729" y="545"/>
      <point x="837" y="545" type="curve"/>
      <point x="819" y="716" type="line"/>
      <point x="631" y="716"/>
      <point x="558" y="663"/>
      <point x="481" y="495" type="curve" smooth="yes"/>
      <point x="346" y="201" type="line"/>
      <point x="409" y="201" type="line"/>
      <point x="205" y="705" type="line"/>
      <point x="-27" y="705" type="line"/>
    </contour>
  </outline>
</glyph>
<glyph name="Semisoftsign-cy" format="2">
  <advance width="787"/>
  <unicode hex="048C"/>
  <outline>
    <contour>
      <point x="144" y="0" type="line"/>
      <point x="508" y="0" type="line" smooth="yes"/>
      <point x="667" y="0"/>
      <point x="766" y="80"/>
      <point x="766" y="221" type="curve" smooth="yes"/>
      <point x="766" y="361"/>
      <point x="667" y="441"/>
      <point x="508" y="441" type="curve" smooth="yes"/>
      <point x="347" y="441" type="line"/>
      <point x="347" y="498" type="line"/>
      <point x="492" y="498" type="line"/>
      <point x="492" y="644" type="line"/>
      <point x="347" y="644" type="line"/>
      <point x="347" y="705" type="line"/>
      <point x="144" y="705" type="line"/>
      <point x="144" y="644" type="line"/>
      <point x="0" y="644" type="line"/>
      <point x="0" y="498" type="line"/>
      <point x="144" y="498" type="line"/>
    </contour>
    <contour>
      <point x="347" y="159" type="line"/>
      <point x="347" y="283" type="line"/>
      <point x="478" y="283" type="line" smooth="yes"/>
      <point x="539" y="283"/>
      <point x="565" y="262"/>
      <point x="565" y="221" type="curve" smooth="yes"/>
      <point x="565" y="179"/>
      <point x="539" y="159"/>
      <point x="478" y="159" type="curve" smooth="yes"/>
    </contour>
  </outline>
</glyph>
<glyph name="gheupturn-cy" format="2">
  <advance width="508"/>
  <unicode hex="0491"/>
  <outline>
    <contour>
      <point x="54" y="0" type="line"/>
      <point x="260" y="0" type="line"/>
      <point x="260" y="350" type="line"/>
      <point x="487" y="350" type="line"/>
      <point x="487" y="618" type="line"/>
      <point x="313" y="618" type="line"/>
      <point x="313" y="510" type="line"/>
      <point x="54" y="510" type="line"/>
    </contour>
  </outline>
</glyph>
<glyph name="Ghemiddlehook-cy" format="2">
  <advance width="773"/>
  <unicode hex="0494"/>
  <outline>
    <contour>
      <point x="464" y="-192" type="curve" smooth="yes"/>
      <point x="617" y="-192"/>
      <point x="730" y="-94"/>
      <point x="730" y="77" type="curve" smooth="yes"/>
      <point x="730" y="147" type="line" smooth="yes"/>
      <point x="730" y="355"/>
      <point x="607" y="455"/>
      <point x="395" y="455" type="curve" smooth="yes"/>
      <point x="350" y="455"/>
      <point x="299" y="447"/>
      <point x="272" y="438" type="curve"/>
      <point x="272" y="533" type="line"/>
      <point x="597" y="533" type="line"/>
      <point x="597" y="705" type="line"/>
      <point x="58" y="705" type="line"/>
      <point x="58" y="0" type="line"/>
      <point x="272" y="0" type="line"/>
      <point x="272" y="263" type="line"/>
      <point x="301" y="272"/>
      <point x="338" y="278"/>
      <point x="368" y="278" type="curve" smooth="yes"/>
      <point x="457" y="278"/>
      <point x="516" y="240"/>
      <point x="516" y="141" type="curve" smooth="yes"/>
      <point x="516" y="67" type="line" smooth="yes"/>
      <point x="516" y="8"/>
      <point x="481" y="-29"/>
      <point x="428" y="-29" type="curve" smooth="yes"/>
      <point x="403" y="-29"/>
      <point x="374" y="-25"/>
      <point x="350" y="-19" type="curve"/>
      <point x="350" y="-180" type="line"/>
      <point x="381" y="-188"/>
      <point x="420" y="-192"/>
    </contour>
  </outline>
</glyph>
<glyph name="Kaverticalstroke-cy" format="2">
  <advance width="847"/>
  <unicode hex="049C"/>
  <outline>
    <contour>
      <point x="58" y="0" type="line"/>
      <point x="272" y="0" type="line"/>
      <point x="272" y="263" type="line"/>
      <point x="313" y="263" type="line"/>
      <point x="313" y="112" type="line"/>
      <point x="426" y="112" type="line"/>
      <point x="426" y="276" type="line"/>
      <point x="404" y="263" type="line"/>
      <point x="423" y="263" type="line" smooth="yes"/>
      <point x="481" y="263"/>
      <point x="512" y="242"/>
      <point x="534" y="195" type="curve" smooth="yes"/>
      <point x="625" y="0" type="line"/>
      <point x="856" y="0" type="line"/>
      <point x="726" y="262" type="line" smooth="yes"/>
      <point x="679" y="355"/>
      <point x="619" y="404"/>
      <point x="517" y="424" type="curve"/>
      <point x="603" y="369" type="line"/>
      <point x="821" y="705" type="line"/>
      <point x="588" y="705" type="line"/>
      <point x="423" y="431" type="line"/>
      <point x="426" y="431" type="line"/>
      <point x="426" y="589" type="line"/>
      <point x="313" y="589" type="line"/>
      <point x="313" y="431" type="line"/>
      <point x="272" y="431" type="line"/>
      <point x="272" y="705" type="line"/>
      <point x="58" y="705" type="line"/>
    </contour>
  </outline>
</glyph>
<glyph name="Kastroke-cy" format="2">
  <advance width="842"/>
  <unicode hex="049E"/>
  <outline>
    <contour>
      <point x="135" y="0" type="line"/>
      <point x="349" y="0" type="line"/>
      <point x="349" y="260" type="line"/>
      <point x="405" y="260" type="line" smooth="yes"/>
      <point x="463" y="260"/>
      <point x="494" y="242"/>
      <point x="516" y="195" type="curve" smooth="yes"/>
      <point x="606" y="0" type="line"/>
      <point x="838" y="0" type="line"/>
      <point x="708" y="262" type="line" smooth="yes"/>
      <point x="661" y="355"/>
      <point x="605" y="390"/>
      <point x="554" y="408" type="curve"/>
      <point x="609" y="346" type="line"/>
      <point x="851" y="705" type="line"/>
      <point x="618" y="705" type="line"/>
      <point x="419" y="390" type="line"/>
      <point x="463" y="432" type="line"/>
      <point x="349" y="432" type="line"/>
      <point x="349" y="506" type="line"/>
      <point x="453" y="506" type="line"/>
      <point x="453" y="642" type="line"/>
      <point x="349" y="642" type="line"/>
      <point x="349" y="705" type="line"/>
      <point x="135" y="705" type="line"/>
      <point x="135" y="642" type="line"/>
      <point x="-10" y="642" type="line"/>
      <point x="-10" y="506" type="line"/>
      <point x="135" y="506" type="line"/>
    </contour>
  </outline>
</glyph>
<glyph name="Enghe-cy" format="2">
  <advance width="961"/>
  <unicode hex="04A4"/>
  <outline>
    <contour>
      <point x="58" y="0" type="line"/>
      <point x="272" y="0" type="line"/>
      <point x="272" y="270" type="line"/>
      <point x="513" y="270" type="line"/>
      <point x="513" y="0" type="line"/>
      <point x="727" y="0" type="line"/>
      <point x="727" y="533" type="line"/>
      <point x="949" y="533" type="line"/>
      <point x="949" y="705" type="line"/>
      <point x="513" y="705" type="line"/>
      <point x="513" y="444" type="line"/>
      <point x="272" y="444" type="line"/>
      <point x="272" y="705" type="line"/>
      <point x="58" y="705" type="line"/>
    </contour>
  </outline>
</glyph>
<glyph name="Tedescender-cy" format="2">
  <advance width="648"/>
  <unicode hex="04AC"/>
  <outline>
    <contour>
      <point x="349" y="-180" type="line"/>
      <point x="533" y="-180" type="line"/>
      <point x="533" y="166" type="line"/>
      <point x="432" y="166" type="line"/>
      <point x="432" y="531" type="line"/>
      <point x="636" y="531" type="line"/>
      <point x="636" y="705" type="line"/>
      <point x="12" y="705" type="line"/>
      <point x="12" y="531" type="line"/>
      <point x="216" y="531" type="line"/>
      <point x="216" y="0" type="line"/>
      <point x="349" y="0" type="line"/>
    </contour>
  </outline>
</glyph>
<glyph name="ustraight-cy" format="2">
  <advance width="586"/>
  <unicode hex="04AF"/>
  <anchor x="295" y="30" name="center"/>
  <outline>
    <contour>
      <point x="189" y="-216" type="line"/>
      <point x="395" y="-216" type="line"/>
      <point x="395" y="43" type="line"/>
      <point x="603" y="510" type="line"/>
      <point x="401" y="510" type="line"/>
      <point x="278" y="201" type="line"/>
      <point x="316" y="201" type="line"/>
      <point x="198" y="510" type="line"/>
      <point x="-17" y="510" type="line"/>
      <point x="189" y="35" type="line"/>
    </contour>
  </outline>
</glyph>
<glyph name="ustraightstroke-cy" format="2">
  <advance width="586"/>
  <unicode hex="04B1"/>
  <outline>
    <contour>
      <point x="189" y="-216" type="line"/>
      <point x="395" y="-216" type="line"/>
      <point x="395" y="-67" type="line"/>
      <point x="532" y="-67" type="line"/>
      <point x="532" y="72" type="line"/>
      <point x="395" y="72" type="line"/>
      <point x="395" y="43" type="line"/>
      <point x="603" y="510" type="line"/>
      <point x="401" y="510" type="line"/>
      <point x="278" y="201" type="line"/>
      <point x="316" y="201" type="line"/>
      <point x="198" y="510" type="line"/>
      <point x="-17" y="510" type="line"/>
      <point x="189" y="35" type="line"/>
      <point x="189" y="72" type="line"/>
      <point x="51" y="72" type="line"/>
      <point x="51" y="-67" type="line"/>
      <point x="189" y="-67" type="line"/>
    </contour>
  </outline>
</glyph>
<glyph name="Tetse-cy" format="2">
  <advance width="1003"/>
  <unicode hex="04B4"/>
  <outline>
    <contour>
      <point x="797" y="-180" type="line"/>
      <point x="981" y="-180" type="line"/>
      <point x="981" y="172" type="line"/>
      <point x="878" y="172" type="line"/>
      <point x="878" y="705" type="line"/>
      <point x="664" y="705" type="line"/>
      <point x="664" y="172" type="line"/>
      <point x="423" y="172" type="line"/>
      <point x="423" y="533" type="line"/>
      <point x="580" y="533" type="line"/>
      <point x="580" y="705" type="line"/>
      <point x="12" y="705" type="line"/>
      <point x="12" y="533" type="line"/>
      <point x="209" y="533" type="line"/>
      <point x="209" y="0" type="line"/>
      <point x="797" y="0" type="line"/>
    </contour>
  </outline>
</glyph>
<glyph name="Cheverticalstroke-cy" format="2">
  <advance width="750"/>
  <unicode hex="04B8"/>
  <outline>
    <contour>
      <point x="478" y="0" type="line"/>
      <point x="692" y="0" type="line"/>
      <point x="692" y="705" type="line"/>
      <point x="478" y="705" type="line"/>
      <point x="478" y="408" type="line"/>
      <point x="456" y="401"/>
      <point x="414" y="394"/>
      <point x="388" y="394" type="curve"/>
      <point x="427" y="384" type="line"/>
      <point x="427" y="544" type="line"/>
      <point x="314" y="544" type="line"/>
      <point x="314" y="384" type="line"/>
      <point x="348" y="396" type="line"/>
      <point x="283" y="405"/>
      <point x="257" y="456"/>
      <point x="257" y="531" type="curve" smooth="yes"/>
      <point x="257" y="705" type="line"/>
      <point x="43" y="705" type="line"/>
      <point x="43" y="525" type="line" smooth="yes"/>
      <point x="43" y="318"/>
      <point x="153" y="224"/>
      <point x="332" y="217" type="curve"/>
      <point x="314" y="243" type="line"/>
      <point x="314" y="96" type="line"/>
      <point x="427" y="96" type="line"/>
      <point x="427" y="243" type="line"/>
      <point x="397" y="219" type="line"/>
      <point x="421" y="220"/>
      <point x="453" y="226"/>
      <point x="478" y="233" type="curve"/>
    </contour>
  </outline>
</glyph>
<glyph name="cheabkhasian-cy" format="2">
  <advance width="729"/>
  <unicode hex="04BD"/>
  <anchor x="581" y="0" name="ogonek"/>
  <outline>
    <contour>
      <point x="493" y="-12" type="curve" smooth="yes"/>
      <point x="569" y="-12"/>
      <point x="636" y="6"/>
      <point x="689" y="38" type="curve"/>
      <point x="637" y="173" type="line"/>
      <point x="595" y="150"/>
      <point x="551" y="141"/>
      <point x="500" y="141" type="curve" smooth="yes"/>
      <point x="413" y="141"/>
      <point x="387" y="172"/>
      <point x="387" y="260" type="curve"/>
      <point x="367" y="213" type="line"/>
      <point x="693" y="213" type="line"/>
      <point x="693" y="253" type="line" smooth="yes"/>
      <point x="693" y="408"/>
      <point x="615" y="522"/>
      <point x="455" y="522" type="curve" smooth="yes"/>
      <point x="302" y="522"/>
      <point x="200" y="419"/>
      <point x="192" y="275" type="curve"/>
      <point x="221" y="307" type="line"/>
      <point x="204" y="307" type="line" smooth="yes"/>
      <point x="173" y="307"/>
      <point x="161" y="322"/>
      <point x="161" y="365" type="curve" smooth="yes"/>
      <point x="161" y="396" type="line"/>
      <point x="5" y="396" type="line"/>
      <point x="5" y="364" type="line" smooth="yes"/>
      <point x="5" y="263"/>
      <point x="47" y="213"/>
      <point x="173" y="213" type="curve" smooth="yes"/>
      <point x="202" y="213" type="line"/>
      <point x="191" y="256" type="line"/>
      <point x="191" y="91"/>
      <point x="301" y="-12"/>
    </contour>
    <contour>
      <point x="457" y="387" type="curve" smooth="yes"/>
      <point x="497" y="387"/>
      <point x="521" y="358"/>
      <point x="521" y="293" type="curve"/>
      <point x="538" y="307" type="line"/>
      <point x="367" y="307" type="line"/>
      <point x="387" y="271" type="line"/>
      <point x="387" y="352"/>
      <point x="410" y="387"/>
    </contour>
  </outline>
</glyph>
<glyph name="dzeabkhasian-cy" format="2">
  <advance width="567"/>
  <unicode hex="04E1"/>
  <outline>
    <contour>
      <point x="245" y="-192" type="curve" smooth="yes"/>
      <point x="426" y="-192"/>
      <point x="543" y="-96"/>
      <point x="543" y="48" type="curve" smooth="yes"/>
      <point x="543" y="167"/>
      <point x="455" y="238"/>
      <point x="307" y="238" type="curve" smooth="yes"/>
      <point x="251" y="238" type="line"/>
      <point x="323" y="204" type="line"/>
      <point x="510" y="374" type="line"/>
      <point x="510" y="510" type="line"/>
      <point x="25" y="510" type="line"/>
      <point x="25" y="360" type="line"/>
      <point x="334" y="360" type="line"/>
      <point x="334" y="401" type="line"/>
      <point x="123" y="203" type="line"/>
      <point x="123" y="107" type="line"/>
      <point x="213" y="107" type="line" smooth="yes"/>
      <point x="300" y="107"/>
      <point x="340" y="85"/>
      <point x="340" y="34" type="curve" smooth="yes"/>
      <point x="340" y="-14"/>
      <point x="300" y="-38"/>
      <point x="219" y="-38" type="curve" smooth="yes"/>
      <point x="157" y="-38"/>
      <point x="95" y="-21"/>
      <point x="49" y="8" type="curve"/>
      <point x="-5" y="-132" type="line"/>
      <point x="58" y="-172"/>
      <point x="142" y="-192"/>
    </contour>
  </outline>
</glyph>
<glyph name="Hahook-cy" format="2">
  <advance width="705"/>
  <unicode hex="04FC"/>
  <outline>
    <contour>
      <point x="399" y="-190" type="line"/>
      <point x="598" y="-174"/>
      <point x="686" y="-106"/>
      <point x="686" y="0" type="curve" smooth="yes"/>
      <point x="686" y="49"/>
      <point x="668" y="102"/>
      <point x="612" y="175" type="curve" smooth="yes"/>
      <point x="437" y="404" type="line"/>
      <point x="437" y="305" type="line"/>
      <point x="740" y="705" type="line"/>
      <point x="488" y="705" type="line"/>
      <point x="316" y="461" type="line"/>
      <point x="386" y="461" type="line"/>
      <point x="216" y="705" type="line"/>
      <point x="-36" y="705" type="line"/>
      <point x="266" y="305" type="line"/>
      <point x="266" y="404" type="line"/>
      <point x="-40" y="0" type="line"/>
      <point x="210" y="0" type="line"/>
      <point x="385" y="245" type="line"/>
      <point x="318" y="245" type="line"/>
      <point x="431" y="87" type="line" smooth="yes"/>
      <point x="452" y="58"/>
      <point x="466" y="37"/>
      <point x="466" y="18" type="curve" smooth="yes"/>
      <point x="466" y="-8"/>
      <point x="444" y="-20"/>
      <point x="399" y="-25" type="curve"/>
    </contour>
  </outline>
</glyph>
<glyph name="Elhook-cy" format="2">
  <advance width="791"/>
  <unicode hex="0512"/>
  <outline>
    <contour>
      <point x="477" y="-187" type="curve" smooth="yes"/>
      <point x="665" y="-187"/>
      <point x="733" y="-102"/>
      <point x="733" y="83" type="curve" smooth="yes"/>
      <point x="733" y="705" type="line"/>
      <point x="164" y="705" type="line"/>
      <point x="164" y="484" type="line" smooth="yes"/>
      <point x="164" y="295"/>
      <point x="122" y="197"/>
      <point x="8" y="130" type="curve"/>
      <point x="116" y="-20" type="line"/>
      <point x="268" y="52"/>
      <point x="361" y="205"/>
      <point x="361" y="431" type="curve" smooth="yes"/>
      <point x="361" y="533" type="line"/>
      <point x="519" y="533" type="line"/>
      <point x="519" y="82" type="line" smooth="yes"/>
      <point x="519" y="10"/>
      <point x="500" y="-20"/>
      <point x="440" y="-20" type="curve" smooth="yes"/>
      <point x="426" y="-20"/>
      <point x="397" y="-18"/>
      <point x="371" y="-13" type="curve"/>
      <point x="371" y="-177" type="line"/>
      <point x="410" y="-185"/>
      <point x="452" y="-187"/>
    </contour>
  </outline>
</glyph>
<glyph name="EnLeftHook-cy" format="2">
  <advance width="789"/>
  <unicode hex="0528"/>
  <outline>
    <contour>
      <point x="17" y="-187" type="curve" smooth="yes"/>
      <point x="205" y="-187"/>
      <point x="273" y="-102"/>
      <point x="273" y="83" type="curve" smooth="yes"/>
      <point x="273" y="270" type="line"/>
      <point x="517" y="270" type="line"/>
      <point x="517" y="0" type="line"/>
      <point x="731" y="0" type="line"/>
      <point x="731" y="705" type="line"/>
      <point x="517" y="705" type="line"/>
      <point x="517" y="444" type="line"/>
      <point x="273" y="444" type="line"/>
      <point x="273" y="705" type="line"/>
      <point x="57" y="705" type="line"/>
      <point x="57" y="82" type="line" smooth="yes"/>
      <point x="57" y="10"/>
      <point x="40" y="-20"/>
      <point x="-20" y="-20" type="curve" smooth="yes"/>
      <point x="-34" y="-20"/>
      <point x="-63" y="-18"/>
      <point x="-89" y="-13" type="curve"/>
      <point x="-89" y="-177" type="line"/>
      <point x="-50" y="-185"/>
      <point x="-8" y="-187"/>
    </contour>
  </outline>
</glyph>
<glyph name="Germandbls" format="2">
  <advance width="735"/>
  <unicode hex="1E9E"/>
  <outline>
    <contour>
      <point x="467" y="-12" type="curve" smooth="yes"/>
      <point x="623" y="-12"/>
      <point x="715" y="66"/>
      <point x="715" y="194" type="curve" smooth="yes"/>
      <point x="715" y="293"/>
      <point x="651" y="365"/>
      <point x="553" y="375" type="curve"/>
      <point x="553" y="354" type="line"/>
      <point x="634" y="384"/>
      <point x="678" y="444"/>
      <point x="678" y="520" type="curve" smooth="yes"/>
      <point x="678" y="642"/>
      <point x="588" y="717"/>
      <point x="407" y="717" type="curve" smooth="yes"/>
      <point x="173" y="717"/>
      <point x="58" y="617"/>
      <point x="58" y="430" type="curve" smooth="yes"/>
      <point x="58" y="0" type="line"/>
      <point x="264" y="0" type="line"/>
      <point x="264" y="430" type="line" smooth="yes"/>
      <point x="264" y="512"/>
      <point x="295" y="549"/>
      <point x="386" y="549" type="curve" smooth="yes"/>
      <point x="444" y="549"/>
      <point x="474" y="529"/>
      <point x="474" y="490" type="curve" smooth="yes"/>
      <point x="474" y="452"/>
      <point x="446" y="432"/>
      <point x="390" y="432" type="curve" smooth="yes"/>
      <point x="340" y="432" type="line"/>
      <point x="340" y="271" type="line"/>
      <point x="403" y="271" type="line" smooth="yes"/>
      <point x="479" y="271"/>
      <point x="512" y="253"/>
      <point x="512" y="211" type="curve" smooth="yes"/>
      <point x="512" y="177"/>
      <point x="485" y="154"/>
      <point x="443" y="154" type="curve" smooth="yes"/>
      <point x="413" y="154"/>
      <point x="388" y="159"/>
      <point x="359" y="178" type="curve"/>
      <point x="303" y="28" type="line"/>
      <point x="362" y="-6"/>
      <point x="414" y="-12"/>
    </contour>
  </outline>
</glyph>
<glyph name="quotesinglbase" format="2">
  <advance width="285"/>
  <unicode hex="201A"/>
  <outline>
    <contour>
      <point x="134" y="-168" type="line"/>
      <point x="218" y="-84"/>
      <point x="248" y="-14"/>
      <point x="248" y="79" type="curve" smooth="yes"/>
      <point x="248" y="207" type="line"/>
      <point x="37" y="207" type="line"/>
      <point x="37" y="0" type="line"/>
      <point x="183" y="0" type="line"/>
      <point x="139" y="51" type="line"/>
      <point x="139" y="-7"/>
      <point x="114" y="-52"/>
      <point x="58" y="-107" type="curve"/>
    </contour>
  </outline>
</glyph>
<glyph name="commercialMinusSign" format="2">
  <advance width="600"/>
  <unicode hex="2052"/>
  <outline>
    <contour>
      <point x="203" y="-43" type="line"/>
      <point x="576" y="748" type="line"/>
      <point x="398" y="748" type="line"/>
      <point x="25" y="-43" type="line"/>
    </contour>
    <contour>
      <point x="360" y="0" type="line"/>
      <point x="570" y="0" type="line"/>
      <point x="570" y="207" type="line"/>
      <point x="360" y="207" type="line"/>
    </contour>
    <contour>
      <point x="32" y="498" type="line"/>
      <point x="242" y="498" type="line"/>
      <point x="242" y="705" type="line"/>
      <point x="32" y="705" type="line"/>
    </contour>
  </outline>
</glyph>
<glyph name="cedi" format="2">
  <advance width="600"/>
  <unicode hex="20B5"/>
  <outline>
    <contour>
      <point x="261" y="-115" type="line"/>
      <point x="421" y="-115" type="line"/>
      <point x="421" y="22" type="line"/>
      <point x="391" y="-3" type="line"/>
      <point x="465" y="2"/>
      <point x="538" y="32"/>
      <point x="574" y="68" type="curve"/>
      <point x="508" y="230" type="line"/>
      <point x="464" y="191"/>
      <point x="422" y="183"/>
      <point x="380" y="183" type="curve" smooth="yes"/>
      <point x="292" y="183"/>
      <point x="251" y="245"/>
      <point x="251" y="353" type="curve" smooth="yes"/>
      <point x="251" y="460"/>
      <point x="292" y="522"/>
      <point x="380" y="522" type="curve" smooth="yes"/>
      <point x="422" y="522"/>
      <point x="464" y="514"/>
      <point x="508" y="475" type="curve"/>
      <point x="574" y="637" type="line"/>
      <point x="538" y="673"/>
      <point x="465" y="703"/>
      <point x="391" y="708" type="curve"/>
      <point x="421" y="683" type="line"/>
      <point x="421" y="820" type="line"/>
      <point x="261" y="820" type="line"/>
      <point x="261" y="680" type="line"/>
      <point x="299" y="704" type="line"/>
      <point x="131" y="676"/>
      <point x="28" y="544"/>
      <point x="28" y="353" type="curve" smooth="yes"/>
      <point x="28" y="161"/>
      <point x="131" y="29"/>
      <point x="299" y="1" type="curve"/>
      <point x="261" y="25" type="line"/>
    </contour>
  </outline>
</glyph>
<glyph name="manat" format="2">
  <advance width="600"/>
  <unicode hex="20BC"/>
  <outline>
    <contour>
      <point x="13" y="0" type="line"/>
      <point x="193" y="0" type="line"/>
      <point x="193" y="210" type="line" smooth="yes"/>
      <point x="193" y="348"/>
      <point x="208" y="408"/>
      <point x="250" y="434" type="curve"/>
      <point x="240" y="434" type="line"/>
      <point x="240" y="160" type="line"/>
      <point x="360" y="160" type="line"/>
      <point x="360" y="434" type="line"/>
      <point x="350" y="434" type="line"/>
      <point x="392" y="408"/>
      <point x="407" y="348"/>
      <point x="407" y="210" type="curve" smooth="yes"/>
      <point x="407" y="0" type="line"/>
      <point x="587" y="0" type="line"/>
      <point x="587" y="210" type="line" smooth="yes"/>
      <point x="587" y="394"/>
      <point x="527" y="568"/>
      <point x="355" y="597" type="curve"/>
      <point x="380" y="564" type="line"/>
      <point x="380" y="705" type="line"/>
      <point x="220" y="705" type="line"/>
      <point x="220" y="564" type="line"/>
      <point x="245" y="597" type="line"/>
      <point x="73" y="568"/>
      <point x="13" y="394"/>
      <point x="13" y="210" type="curve" smooth="yes"/>
    </contour>
  </outline>
</glyph>
<glyph name="ruble" format="2">
  <advance width="600"/>
  <unicode hex="20BD"/>
  <outline>
    <contour>
      <point x="93" y="0" type="line"/>
      <point x="308" y="0" type="line"/>
      <point x="308" y="135" type="line"/>
      <point x="441" y="135" type="line"/>
      <point x="441" y="247" type="line"/>
      <point x="308" y="247" type="line"/>
      <point x="308" y="297" type="line"/>
      <point x="349" y="297" type="line" smooth="yes"/>
      <point x="514" y="297"/>
      <point x="597" y="367"/>
      <point x="597" y="495" type="curve" smooth="yes"/>
      <point x="597" y="610"/>
      <point x="513" y="705"/>
      <point x="349" y="705" type="curve" smooth="yes"/>
      <point x="93" y="705" type="line"/>
      <point x="93" y="409" type="line"/>
      <point x="24" y="409" type="line"/>
      <point x="24" y="297" type="line"/>
      <point x="93" y="297" type="line"/>
      <point x="93" y="247" type="line"/>
      <point x="24" y="247" type="line"/>
      <point x="24" y="135" type="line"/>
      <point x="93" y="135" type="line"/>
    </contour>
    <contour>
      <point x="304" y="409" type="line"/>
      <point x="304" y="553" type="line"/>
      <point x="320" y="553" type="line" smooth="yes"/>
      <point x="372" y="553"/>
      <point x="403" y="535"/>
      <point x="403" y="481" type="curve" smooth="yes"/>
      <point x="403" y="427"/>
      <point x="372" y="409"/>
      <point x="320" y="409" type="curve" smooth="yes"/>
    </contour>
  </outline>
</glyph>
<glyph name="divisionslash" format="2">
  <advance width="600"/>
  <unicode hex="2215"/>
  <outline>
    <contour>
      <point x="257" y="-43" type="line"/>
      <point x="521" y="748" type="line"/>
      <point x="343" y="748" type="line"/>
      <point x="79" y="-43" type="line"/>
    </contour>
  </outline>
</glyph>
<glyph name="radical" format="2">
  <advance width="600"/>
  <unicode hex="221A"/>
  <outline>
    <contour>
      <point x="193" y="-180" type="line"/>
      <point x="397" y="-180" type="line"/>
      <point x="597" y="758" type="line"/>
      <point x="430" y="758" type="line"/>
      <point x="283" y="-4" type="line"/>
      <point x="301" y="-4" type="line"/>
      <point x="222" y="357" type="line"/>
      <point x="6" y="357" type="line"/>
      <point x="6" y="205" type="line"/>
      <point x="171" y="205" type="line"/>
      <point x="74" y="278" type="line"/>
    </contour>
  </outline>
</glyph>
<glyph name="integral" format="2">
  <advance width="600"/>
  <unicode hex="222B"/>
  <outline>
    <contour>
      <point x="198" y="-192" type="curve" smooth="yes"/>
      <point x="350" y="-192"/>
      <point x="420" y="-99"/>
      <point x="420" y="41" type="curve" smooth="yes"/>
      <point x="420" y="485" type="line" smooth="yes"/>
      <point x="420" y="533"/>
      <point x="452" y="550"/>
      <point x="490" y="550" type="curve" smooth="yes"/>
      <point x="505" y="550"/>
      <point x="518" y="548"/>
      <point x="538" y="543" type="curve"/>
      <point x="538" y="702" type="line"/>
      <point x="507" y="714"/>
      <point x="472" y="717"/>
      <point x="434" y="717" type="curve" smooth="yes"/>
      <point x="282" y="717"/>
      <point x="212" y="624"/>
      <point x="212" y="484" type="curve" smooth="yes"/>
      <point x="212" y="40" type="line" smooth="yes"/>
      <point x="212" y="-8"/>
      <point x="180" y="-25"/>
      <point x="142" y="-25" type="curve" smooth="yes"/>
      <point x="127" y="-25"/>
      <point x="114" y="-23"/>
      <point x="94" y="-18" type="curve"/>
      <point x="94" y="-177" type="line"/>
      <point x="125" y="-189"/>
      <point x="160" y="-192"/>
    </contour>
  </outline>
</glyph>
<glyph name="lessequal" format="2">
  <advance width="600"/>
  <unicode hex="2264"/>
  <outline>
    <contour>
      <point x="544" y="143" type="line"/>
      <point x="544" y="284" type="line"/>
      <point x="77" y="396" type="line"/>
      <point x="77" y="296" type="line"/>
      <point x="544" y="407" type="line"/>
      <point x="544" y="548" type="line"/>
      <point x="56" y="423" type="line"/>
      <point x="56" y="268" type="line"/>
    </contour>
    <contour>
      <point x="56" y="0" type="line"/>
      <point x="544" y="0" type="line"/>
      <point x="544" y="136" type="line"/>
      <point x="56" y="136" type="line"/>
    </contour>
  </outline>
</glyph>
<glyph name="__Kabashkir-cy" format="2">
  <advance width="446"/>
  <anchor x="434" y="705" name="_topleft"/>
  <anchor x="24" y="705" name="_topright"/>
  <outline>
    <contour>
      <point x="24" y="533" type="line"/>
      <point x="434" y="533" type="line"/>
      <point x="434" y="705" type="line"/>
      <point x="24" y="705" type="line"/>
    </contour>
  </outline>
</glyph>
<glyph name="__bar.Obarred-cy" format="2">
  <advance width="825"/>
  <anchor x="414" y="353" name="_center"/>
  <outline>
    <contour>
      <point x="159" y="282" type="line"/>
      <point x="664" y="282" type="line"/>
      <point x="664" y="434" type="line"/>
      <point x="159" y="434" type="line"/>
    </contour>
  </outline>
</glyph>
<glyph name="__descender-cy.cy" format="2">
  <advance width="75"/>
  <anchor x="0" y="0" name="_bottomright"/>
  <outline>
    <contour>
      <point x="42" y="-130" type="line"/>
      <point x="217" y="-130" type="line"/>
      <point x="217" y="151" type="line"/>
      <point x="0" y="151" type="line"/>
      <point x="0" y="0" type="line"/>
      <point x="42" y="0" type="line"/>
    </contour>
  </outline>
</glyph>
<glyph name="__strokehook-cy" format="2">
  <advance width="629"/>
  <anchor x="86" y="0" name="_bottomright"/>
  <outline>
    <contour>
      <point x="60" y="-189" type="line"/>
      <point x="153" y="-183" type="line" smooth="yes"/>
      <point x="325" y="-172"/>
      <point x="402" y="-100"/>
      <point x="402" y="44" type="curve" smooth="yes"/>
      <point x="402" y="165" type="line"/>
      <point x="86" y="165" type="line"/>
      <point x="86" y="0" type="line"/>
      <point x="208" y="0" type="line"/>
      <point x="208" y="-24"/>
      <point x="177" y="-44"/>
      <point x="116" y="-49" type="curve" smooth="yes"/>
      <point x="47" y="-55" type="line"/>
    </contour>
  </outline>
</glyph>
<glyph name="brevecomb-cy.case" format="2">
  <anchor x="4" y="705" name="_top"/>
  <outline>
    <contour>
      <point x="2" y="760" type="curve" smooth="yes"/>
      <point x="126" y="760"/>
      <point x="202" y="826"/>
      <point x="218" y="915" type="curve"/>
      <point x="126" y="944" type="line"/>
      <point x="111" y="893"/>
      <point x="73" y="862"/>
      <point x="4" y="862" type="curve" smooth="yes"/>
      <point x="-64" y="862"/>
      <point x="-101" y="885"/>
      <point x="-123" y="945" type="curve"/>
      <point x="-218" y="915" type="line"/>
      <point x="-207" y="832"/>
      <point x="-140" y="760"/>
    </contour>
  </outline>
</glyph>
<glyph name="brevecomb_acutecomb.case" format="2">
  <anchor x="0" y="705" name="_top"/>
  <outline>
    <contour>
      <point x="0" y="760" type="curve" smooth="yes"/>
      <point x="112" y="760"/>
      <point x="188" y="823"/>
      <point x="198" y="920" type="curve"/>
      <point x="109" y="929" type="line"/>
      <point x="92" y="889"/>
      <point x="61" y="864"/>
      <point x="0" y="864" type="curve" smooth="yes"/>
      <point x="-61" y="864"/>
      <point x="-92" y="889"/>
      <point x="-109" y="929" type="curve"/>
      <point x="-198" y="920" type="line"/>
      <point x="-188" y="823"/>
      <point x="-112" y="760"/>
    </contour>
    <contour>
      <point x="-66" y="911" type="line"/>
      <point x="54" y="911" type="line"/>
      <point x="167" y="1026" type="line"/>
      <point x="-18" y="1026" type="line"/>
    </contour>
  </outline>
</glyph>
<glyph name="brevecomb_tildecomb.case" format="2">
  <anchor x="0" y="705" name="_top"/>
  <outline>
    <contour>
      <point x="0" y="760" type="curve" smooth="yes"/>
      <point x="102" y="760"/>
      <point x="178" y="807"/>
      <point x="198" y="880" type="curve"/>
      <point x="109" y="909" type="line"/>
      <point x="92" y="881"/>
      <point x="61" y="864"/>
      <point x="0" y="864" type="curve" smooth="yes"/>
      <point x="-61" y="864"/>
      <point x="-92" y="881"/>
      <point x="-109" y="909" type="curve"/>
      <point x="-198" y="880" type="line"/>
      <point x="-178" y="807"/>
      <point x="-102" y="760"/>
    </contour>
    <contour>
      <point x="-115" y="923" type="line"/>
      <point x="-109" y="941"/>
      <point x="-93" y="951"/>
      <point x="-62" y="951" type="curve" smooth="yes"/>
      <point x="-48" y="951"/>
      <point x="-31" y="946"/>
      <point x="-14" y="940" type="curve" smooth="yes"/>
      <point x="12" y="931"/>
      <point x="41" y="922"/>
      <point x="69" y="922" type="curve" smooth="yes"/>
      <point x="140" y="922"/>
      <point x="194" y="963"/>
      <point x="198" y="1042" type="curve"/>
      <point x="115" y="1047" type="line"/>
      <point x="109" y="1028"/>
      <point x="93" y="1019"/>
      <point x="62" y="1019" type="curve" smooth="yes"/>
      <point x="50" y="1019"/>
      <point x="38" y="1022"/>
      <point x="10" y="1031" type="curve" smooth="yes"/>
      <point x="-17" y="1040"/>
      <point x="-41" y="1047"/>
      <point x="-69" y="1047" type="curve" smooth="yes"/>
      <point x="-140" y="1047"/>
      <point x="-194" y="1006"/>
      <point x="-198" y="927" type="curve"/>
    </contour>
  </outline>
</glyph>
<glyph name="circumflexcomb_gravecomb" format="2">
  <anchor x="0" y="494" name="_top"/>
  <outline>
    <contour>
      <point x="-197" y="558" type="line"/>
      <point x="-73" y="558" type="line"/>
      <point x="0" y="626" type="line"/>
      <point x="73" y="558" type="line"/>
      <point x="197" y="558" type="line"/>
      <point x="85" y="725" type="line"/>
      <point x="-85" y="725" type="line"/>
    </contour>
    <contour>
      <point x="174" y="670" type="line"/>
      <point x="281" y="670" type="line"/>
      <point x="201" y="820" type="line"/>
      <point x="46" y="820" type="line"/>
    </contour>
  </outline>
</glyph>
<glyph name="circumflexcomb_hookabovecomb.case" format="2">
  <anchor x="0" y="705" name="_top"/>
  <outline>
    <contour>
      <point x="-197" y="765" type="line"/>
      <point x="-73" y="765" type="line"/>
      <point x="0" y="833" type="line"/>
      <point x="73" y="765" type="line"/>
      <point x="197" y="765" type="line"/>
      <point x="85" y="932" type="line"/>
      <point x="-85" y="932" type="line"/>
    </contour>
    <contour>
      <point x="129" y="877" type="curve"/>
      <point x="232" y="877" type="line"/>
      <point x="232" y="917"/>
      <point x="289" y="937"/>
      <point x="289" y="981" type="curve" smooth="yes"/>
      <point x="289" y="1012"/>
      <point x="252" y="1031"/>
      <point x="188" y="1031" type="curve" smooth="yes"/>
      <point x="130" y="1031"/>
      <point x="99" y="1023"/>
      <point x="68" y="1010" type="curve"/>
      <point x="90" y="945" type="line"/>
      <point x="106" y="953"/>
      <point x="124" y="956"/>
      <point x="143" y="956" type="curve" smooth="yes"/>
      <point x="150" y="956"/>
      <point x="161" y="953"/>
      <point x="161" y="945" type="curve" smooth="yes"/>
      <point x="161" y="925"/>
      <point x="129" y="909"/>
    </contour>
  </outline>
</glyph>
<glyph name="dieresiscomb_acutecomb.case" format="2">
  <anchor x="0" y="705" name="_top"/>
  <outline>
    <contour>
      <point x="-60" y="916" type="line"/>
      <point x="60" y="916" type="line"/>
      <point x="173" y="1031" type="line"/>
      <point x="-12" y="1031" type="line"/>
    </contour>
    <contour>
      <point x="-192" y="769" type="line"/>
      <point x="-24" y="769" type="line"/>
      <point x="-24" y="884" type="line"/>
      <point x="-192" y="884" type="line"/>
    </contour>
    <contour>
      <point x="24" y="769" type="line"/>
      <point x="192" y="769" type="line"/>
      <point x="192" y="884" type="line"/>
      <point x="24" y="884" type="line"/>
    </contour>
  </outline>
</glyph>
<glyph name="five.dnom" format="2">
  <advance width="380"/>
  <outline>
    <contour>
      <point x="180" y="-6" type="curve" smooth="yes"/>
      <point x="297" y="-6"/>
      <point x="371" y="47"/>
      <point x="371" y="145" type="curve" smooth="yes"/>
      <point x="371" y="230"/>
      <point x="307" y="276"/>
      <point x="233" y="276" type="curve" smooth="yes"/>
      <point x="193" y="276"/>
      <point x="172" y="271"/>
      <point x="150" y="257" type="curve"/>
      <point x="170" y="257" type="line"/>
      <point x="170" y="308" type="line"/>
      <point x="344" y="308" type="line"/>
      <point x="344" y="423" type="line"/>
      <point x="33" y="423" type="line"/>
      <point x="33" y="159" type="line"/>
      <point x="101" y="159" type="line"/>
      <point x="115" y="168"/>
      <point x="141" y="174"/>
      <point x="165" y="174" type="curve" smooth="yes"/>
      <point x="202" y="174"/>
      <point x="219" y="164"/>
      <point x="219" y="144" type="curve" smooth="yes"/>
      <point x="219" y="124"/>
      <point x="200" y="113"/>
      <point x="166" y="113" type="curve" smooth="yes"/>
      <point x="119" y="113"/>
      <point x="71" y="126"/>
      <point x="44" y="139" type="curve"/>
      <point x="22" y="19" type="line"/>
      <point x="65" y="3"/>
      <point x="109" y="-6"/>
    </contour>
  </outline>
</glyph>
<glyph name="four.dnom" format="2">
  <advance width="380"/>
  <outline>
    <contour>
      <point x="184" y="0" type="line"/>
      <point x="330" y="0" type="line"/>
      <point x="330" y="56" type="line"/>
      <point x="379" y="56" type="line"/>
      <point x="379" y="170" type="line"/>
      <point x="330" y="170" type="line"/>
      <point x="330" y="423" type="line"/>
      <point x="195" y="423" type="line"/>
      <point x="1" y="161" type="line"/>
      <point x="1" y="56" type="line"/>
      <point x="184" y="56" type="line"/>
    </contour>
    <contour>
      <point x="190" y="170" type="line"/>
      <point x="111" y="170" type="line"/>
      <point x="111" y="156" type="line"/>
      <point x="200" y="278" type="line"/>
      <point x="190" y="278" type="line"/>
    </contour>
  </outline>
</glyph>
<glyph name="four.tosf" format="2">
  <advance width="600"/>
  <outline>
    <contour>
      <point x="307" y="-180" type="line"/>
      <point x="503" y="-180" type="line"/>
      <point x="503" y="0" type="line"/>
      <point x="584" y="0" type="line"/>
      <point x="584" y="152" type="line"/>
      <point x="503" y="152" type="line"/>
      <point x="503" y="510" type="line"/>
      <point x="345" y="510" type="line"/>
      <point x="21" y="128" type="line"/>
      <point x="21" y="0" type="line"/>
      <point x="307" y="0" type="line"/>
    </contour>
    <contour>
      <point x="316" y="152" type="line"/>
      <point x="199" y="152" type="line"/>
      <point x="199" y="135" type="line"/>
      <point x="342" y="304" type="line"/>
      <point x="316" y="304" type="line"/>
    </contour>
  </outline>
</glyph>
<glyph name="hookabovecomb.case" format="2">
  <anchor x="0" y="705" name="_top"/>
  <anchor x="0" y="865" name="top"/>
  <outline>
    <contour>
      <point x="-58" y="765" type="line"/>
      <point x="58" y="765" type="line"/>
      <point x="58" y="779" type="line" smooth="yes"/>
      <point x="58" y="822"/>
      <point x="134" y="822"/>
      <point x="134" y="885" type="curve" smooth="yes"/>
      <point x="134" y="928"/>
      <point x="88" y="952"/>
      <point x="13" y="952" type="curve" smooth="yes"/>
      <point x="-46" y="952"/>
      <point x="-92" y="944"/>
      <point x="-127" y="929" type="curve"/>
      <point x="-98" y="855" type="line"/>
      <point x="-80" y="862"/>
      <point x="-64" y="866"/>
      <point x="-42" y="866" type="curve" smooth="yes"/>
      <point x="-26" y="866"/>
      <point x="-14" y="862"/>
      <point x="-14" y="851" type="curve" smooth="yes"/>
      <point x="-14" y="832"/>
      <point x="-58" y="822"/>
      <point x="-58" y="786" type="curve" smooth="yes"/>
    </contour>
  </outline>
</glyph>
<glyph name="nine.tosf" format="2">
  <advance width="600"/>
  <outline>
    <contour>
      <point x="236" y="-192" type="curve" smooth="yes"/>
      <point x="448" y="-192"/>
      <point x="574" y="-54"/>
      <point x="574" y="161" type="curve" smooth="yes"/>
      <point x="574" y="393"/>
      <point x="463" y="522"/>
      <point x="276" y="522" type="curve" smooth="yes"/>
      <point x="122" y="522"/>
      <point x="20" y="418"/>
      <point x="20" y="273" type="curve" smooth="yes"/>
      <point x="20" y="146"/>
      <point x="107" y="52"/>
      <point x="229" y="52" type="curve" smooth="yes"/>
      <point x="307" y="52"/>
      <point x="374" y="94"/>
      <point x="394" y="158" type="curve"/>
      <point x="377" y="158" type="line"/>
      <point x="377" y="124" type="line" smooth="yes"/>
      <point x="377" y="30"/>
      <point x="330" y="-27"/>
      <point x="237" y="-27" type="curve" smooth="yes"/>
      <point x="187" y="-27"/>
      <point x="128" y="-10"/>
      <point x="79" y="25" type="curve"/>
      <point x="15" y="-123" type="line"/>
      <point x="78" y="-169"/>
      <point x="157" y="-192"/>
    </contour>
    <contour>
      <point x="282" y="204" type="curve" smooth="yes"/>
      <point x="238" y="204"/>
      <point x="209" y="236"/>
      <point x="209" y="287" type="curve" smooth="yes"/>
      <point x="209" y="338"/>
      <point x="238" y="370"/>
      <point x="282" y="370" type="curve" smooth="yes"/>
      <point x="326" y="370"/>
      <point x="354" y="338"/>
      <point x="354" y="287" type="curve" smooth="yes"/>
      <point x="354" y="236"/>
      <point x="326" y="204"/>
    </contour>
  </outline>
</glyph>
<glyph name="ringcomb.case" format="2">
  <anchor x="0" y="705" name="_top"/>
  <anchor x="0" y="865" name="top"/>
  <outline>
    <contour>
      <point x="0" y="750" type="curve" smooth="yes"/>
      <point x="79" y="750"/>
      <point x="140" y="808"/>
      <point x="140" y="885" type="curve" smooth="yes"/>
      <point x="140" y="962"/>
      <point x="79" y="1020"/>
      <point x="0" y="1020" type="curve" smooth="yes"/>
      <point x="-79" y="1020"/>
      <point x="-140" y="962"/>
      <point x="-140" y="885" type="curve" smooth="yes"/>
      <point x="-140" y="808"/>
      <point x="-79" y="750"/>
    </contour>
    <contour>
      <point x="0" y="832" type="curve" smooth="yes"/>
      <point x="-29" y="832"/>
      <point x="-52" y="854"/>
      <point x="-52" y="885" type="curve" smooth="yes"/>
      <point x="-52" y="916"/>
      <point x="-29" y="937"/>
      <point x="0" y="937" type="curve" smooth="yes"/>
      <point x="29" y="937"/>
      <point x="52" y="916"/>
      <point x="52" y="885" type="curve" smooth="yes"/>
      <point x="52" y="854"/>
      <point x="29" y="832"/>
    </contour>
  </outline>
</glyph>
<glyph name="ringhalfleft.case" format="2">
  <advance width="500"/>
  <anchor x="250" y="705" name="_top"/>
  <anchor x="250" y="865" name="top"/>
  <outline>
    <contour>
      <point x="250" y="760" type="curve"/>
      <point x="250" y="833" type="line"/>
      <point x="227" y="833"/>
      <point x="211" y="851"/>
      <point x="211" y="874" type="curve" smooth="yes"/>
      <point x="211" y="897"/>
      <point x="227" y="916"/>
      <point x="250" y="916" type="curve"/>
      <point x="250" y="988" type="line"/>
      <point x="185" y="988"/>
      <point x="134" y="939"/>
      <point x="134" y="874" type="curve" smooth="yes"/>
      <point x="134" y="810"/>
      <point x="185" y="760"/>
    </contour>
  </outline>
</glyph>
<glyph name="seven.tosf" format="2">
  <advance width="600"/>
  <outline>
    <contour>
      <point x="37" y="-180" type="line"/>
      <point x="263" y="-180" type="line"/>
      <point x="565" y="349" type="line"/>
      <point x="565" y="510" type="line"/>
      <point x="35" y="510" type="line"/>
      <point x="35" y="349" type="line"/>
      <point x="372" y="349" type="line"/>
      <point x="372" y="395" type="line"/>
    </contour>
  </outline>
</glyph>
<glyph name="six.tosf" format="2">
  <advance width="600"/>
  <outline>
    <contour>
      <point x="323" y="-12" type="curve" smooth="yes"/>
      <point x="477" y="-12"/>
      <point x="579" y="92"/>
      <point x="579" y="237" type="curve" smooth="yes"/>
      <point x="579" y="364"/>
      <point x="492" y="458"/>
      <point x="370" y="458" type="curve" smooth="yes"/>
      <point x="292" y="458"/>
      <point x="225" y="416"/>
      <point x="205" y="352" type="curve"/>
      <point x="222" y="352" type="line"/>
      <point x="222" y="386" type="line" smooth="yes"/>
      <point x="222" y="495"/>
      <point x="269" y="552"/>
      <point x="362" y="552" type="curve" smooth="yes"/>
      <point x="412" y="552"/>
      <point x="471" y="535"/>
      <point x="520" y="500" type="curve"/>
      <point x="584" y="648" type="line"/>
      <point x="521" y="694"/>
      <point x="442" y="717"/>
      <point x="363" y="717" type="curve" smooth="yes"/>
      <point x="151" y="717"/>
      <point x="25" y="579"/>
      <point x="25" y="349" type="curve" smooth="yes"/>
      <point x="25" y="117"/>
      <point x="136" y="-12"/>
    </contour>
    <contour>
      <point x="317" y="140" type="curve" smooth="yes"/>
      <point x="273" y="140"/>
      <point x="245" y="172"/>
      <point x="245" y="223" type="curve" smooth="yes"/>
      <point x="245" y="274"/>
      <point x="273" y="306"/>
      <point x="317" y="306" type="curve" smooth="yes"/>
      <point x="361" y="306"/>
      <point x="390" y="274"/>
      <point x="390" y="223" type="curve" smooth="yes"/>
      <point x="390" y="172"/>
      <point x="361" y="140"/>
    </contour>
  </outline>
</glyph>
<glyph name="strokelongcomb.case" format="2">
  <anchor x="0" y="575" name="_center"/>
  <outline>
    <contour>
      <point x="-414" y="500" type="line"/>
      <point x="414" y="500" type="line"/>
      <point x="414" y="650" type="line"/>
      <point x="-414" y="650" type="line"/>
    </contour>
  </outline>
</glyph>
<glyph name="strokeshortcomb.case" format="2">
  <anchor x="0" y="358" name="_center"/>
  <outline>
    <contour>
      <point x="-239" y="280" type="line"/>
      <point x="236" y="280" type="line"/>
      <point x="236" y="430" type="line"/>
      <point x="-239" y="430" type="line"/>
    </contour>
  </outline>
</glyph>
<glyph name="three.tosf" format="2">
  <advance width="600"/>
  <outline>
    <contour>
      <point x="284" y="-192" type="curve" smooth="yes"/>
      <point x="456" y="-192"/>
      <point x="569" y="-114"/>
      <point x="569" y="13" type="curve" smooth="yes"/>
      <point x="569" y="105"/>
      <point x="511" y="170"/>
      <point x="420" y="186" type="curve"/>
      <point x="420" y="171" type="line"/>
      <point x="498" y="190"/>
      <point x="548" y="250"/>
      <point x="548" y="328" type="curve" smooth="yes"/>
      <point x="548" y="451"/>
      <point x="445" y="522"/>
      <point x="291" y="522" type="curve" smooth="yes"/>
      <point x="194" y="522"/>
      <point x="101" y="496"/>
      <point x="37" y="458" type="curve"/>
      <point x="91" y="314" type="line"/>
      <point x="143" y="347"/>
      <point x="209" y="366"/>
      <point x="261" y="366" type="curve" smooth="yes"/>
      <point x="314" y="366"/>
      <point x="344" y="345"/>
      <point x="344" y="306" type="curve" smooth="yes"/>
      <point x="344" y="266"/>
      <point x="313" y="243"/>
      <point x="257" y="243" type="curve" smooth="yes"/>
      <point x="150" y="243" type="line"/>
      <point x="150" y="91" type="line"/>
      <point x="273" y="91" type="line" smooth="yes"/>
      <point x="333" y="91"/>
      <point x="365" y="68"/>
      <point x="365" y="27" type="curve" smooth="yes"/>
      <point x="365" y="-14"/>
      <point x="334" y="-36"/>
      <point x="274" y="-36" type="curve" smooth="yes"/>
      <point x="213" y="-36"/>
      <point x="144" y="-15"/>
      <point x="84" y="27" type="curve"/>
      <point x="23" y="-119" type="line"/>
      <point x="79" y="-163"/>
      <point x="184" y="-192"/>
    </contour>
  </outline>
</glyph>
<glyph name="tildecomb.o" format="2">
  <anchor x="0" y="484" name="_top"/>
  <anchor x="0" y="685" name="top"/>
  <outline>
    <contour>
      <point x="-126" y="573" type="line"/>
      <point x="-120" y="609"/>
      <point x="-104" y="626"/>
      <point x="-74" y="626" type="curve" smooth="yes"/>
      <point x="-62" y="626"/>
      <point x="-49" y="623"/>
      <point x="-22" y="606" type="curve" smooth="yes"/>
      <point x="7" y="588"/>
      <point x="26" y="579"/>
      <point x="55" y="579" type="curve" smooth="yes"/>
      <point x="124" y="579"/>
      <point x="178" y="641"/>
      <point x="182" y="754" type="curve"/>
      <point x="90" y="760" type="line"/>
      <point x="84" y="724"/>
      <point x="68" y="707"/>
      <point x="38" y="707" type="curve" smooth="yes"/>
      <point x="22" y="707"/>
      <point x="9" y="713"/>
      <point x="-14" y="727" type="curve" smooth="yes"/>
      <point x="-46" y="747"/>
      <point x="-63" y="754"/>
      <point x="-91" y="754" type="curve" smooth="yes"/>
      <point x="-160" y="754"/>
      <point x="-214" y="692"/>
      <point x="-218" y="579" type="curve"/>
    </contour>
  </outline>
</glyph>
<glyph name="two.dnom" format="2">
  <advance width="380"/>
  <outline>
    <contour>
      <point x="35" y="0" type="line"/>
      <point x="362" y="0" type="line"/>
      <point x="362" y="130" type="line"/>
      <point x="219" y="130" type="line"/>
      <point x="219" y="121" type="line"/>
      <point x="279" y="172" type="line" smooth="yes"/>
      <point x="331" y="216"/>
      <point x="351" y="255"/>
      <point x="351" y="298" type="curve" smooth="yes"/>
      <point x="351" y="377"/>
      <point x="286" y="427"/>
      <point x="182" y="427" type="curve" smooth="yes"/>
      <point x="117" y="427"/>
      <point x="67" y="414"/>
      <point x="31" y="397" type="curve"/>
      <point x="52" y="275" type="line"/>
      <point x="77" y="289"/>
      <point x="114" y="298"/>
      <point x="139" y="298" type="curve" smooth="yes"/>
      <point x="165" y="298"/>
      <point x="176" y="288"/>
      <point x="176" y="271" type="curve" smooth="yes"/>
      <point x="176" y="255"/>
      <point x="165" y="237"/>
      <point x="141" y="215" type="curve" smooth="yes"/>
      <point x="35" y="117" type="line"/>
    </contour>
  </outline>
</glyph>
<glyph name="two.tosf" format="2">
  <advance width="600"/>
  <outline>
    <contour>
      <point x="58" y="0" type="line"/>
      <point x="558" y="0" type="line"/>
      <point x="558" y="152" type="line"/>
      <point x="237" y="152" type="line"/>
      <point x="237" y="123" type="line"/>
      <point x="435" y="168"/>
      <point x="541" y="242"/>
      <point x="541" y="355" type="curve" smooth="yes"/>
      <point x="541" y="461"/>
      <point x="449" y="522"/>
      <point x="294" y="522" type="curve" smooth="yes"/>
      <point x="197" y="522"/>
      <point x="99" y="496"/>
      <point x="35" y="458" type="curve"/>
      <point x="89" y="314" type="line"/>
      <point x="142" y="347"/>
      <point x="211" y="366"/>
      <point x="262" y="366" type="curve" smooth="yes"/>
      <point x="305" y="366"/>
      <point x="332" y="355"/>
      <point x="332" y="329" type="curve" smooth="yes"/>
      <point x="332" y="281"/>
      <point x="259" y="229"/>
      <point x="58" y="135" type="curve"/>
    </contour>
  </outline>
</glyph>
<glyph name="zero.dnom" format="2">
  <advance width="380"/>
  <outline>
    <contour>
      <point x="190" y="-6" type="curve" smooth="yes"/>
      <point x="306" y="-6"/>
      <point x="374" y="69"/>
      <point x="374" y="213" type="curve" smooth="yes"/>
      <point x="374" y="357"/>
      <point x="306" y="429"/>
      <point x="190" y="429" type="curve" smooth="yes"/>
      <point x="75" y="429"/>
      <point x="6" y="357"/>
      <point x="6" y="213" type="curve" smooth="yes"/>
      <point x="6" y="69"/>
      <point x="75" y="-6"/>
    </contour>
    <contour>
      <point x="190" y="108" type="curve" smooth="yes"/>
      <point x="167" y="108"/>
      <point x="156" y="137"/>
      <point x="156" y="213" type="curve" smooth="yes"/>
      <point x="156" y="289"/>
      <point x="167" y="315"/>
      <point x="190" y="315" type="curve" smooth="yes"/>
      <point x="214" y="315"/>
      <point x="224" y="289"/>
      <point x="224" y="213" type="curve" smooth="yes"/>
      <point x="224" y="137"/>
      <point x="214" y="108"/>
    </contour>
  </outline>
</glyph>
<glyph name="zero.tosf" format="2">
  <advance width="600"/>
  <outline>
    <contour>
      <point x="300" y="-12" type="curve" smooth="yes"/>
      <point x="471" y="-12"/>
      <point x="584" y="97"/>
      <point x="584" y="255" type="curve" smooth="yes"/>
      <point x="584" y="413"/>
      <point x="471" y="522"/>
      <point x="300" y="522" type="curve" smooth="yes"/>
      <point x="129" y="522"/>
      <point x="16" y="413"/>
      <point x="16" y="255" type="curve" smooth="yes"/>
      <point x="16" y="97"/>
      <point x="129" y="-12"/>
    </contour>
    <contour>
      <point x="301" y="141" type="curve" smooth="yes"/>
      <point x="249" y="141"/>
      <point x="226" y="182"/>
      <point x="226" y="255" type="curve" smooth="yes"/>
      <point x="226" y="328"/>
      <point x="249" y="369"/>
      <point x="300" y="369" type="curve" smooth="yes"/>
      <point x="350" y="369"/>
      <point x="374" y="328"/>
      <point x="374" y="255" type="curve" smooth="yes"/>
      <point x="374" y="182"/>
      <point x="351" y="141"/>
    </contour>
  </outline>
</glyph>
